<?xml version="1.0" encoding="utf-8"?>
<!-- Generator: Adobe Adobe Illustrator 24.2.0, SVG Export Plug-In . SVG Version: 6.00 Build 0)  -->
<svg version="1.1" id="Layer_1" xmlns="http://www.w3.org/2000/svg" xmlns:xlink="http://www.w3.org/1999/xlink" x="0px" y="0px"
	 width="841.89px" height="595.28px" viewBox="0 0 841.89 595.28" style="enable-background:new 0 0 841.89 595.28;"
	 xml:space="preserve">
<style type="text/css">
	.st0{fill:#350E07;}
	.st1{fill:#410F09;}
	.st2{fill:#381009;}
	.st3{fill:#E8AF81;}
	.st4{fill:#727DAA;}
	.st5{fill:#AC4743;}
	.st6{fill:#ED9B68;}
	.st7{fill:#F0B687;}
	.st8{fill:#8E5C5A;}
	.st9{fill:#AD4844;}
	.st10{fill:#EFD0AC;}
	.st11{fill:#EEB585;}
	.st12{fill:#F5C8A0;}
	.st13{fill:#F2E9D5;}
	.st14{fill:#EDB484;}
	.st15{fill:#F4C7A0;}
	.st16{fill:#EEE4D0;}
	.st17{fill:#EDD0AC;}
	.st18{fill:#F0C29C;}
	.st19{fill:#F0C49E;}
	.st20{fill:#E99967;}
	.st21{fill:#966256;}
	.st22{fill:#3C0904;}
	.st23{fill:#42120E;}
	.st24{fill:#41110C;}
	.st25{fill:#340D06;}
	.st26{fill:#431009;}
	.st27{fill:#F6CAA4;}
</style>
<g>
	<g>
		<path class="st0" d="M312.75,104.57c1.02-0.03,2.03-0.1,3.05-0.1c16.4-0.01,32.8,0,49.2-0.01c2.04,0,4.06,0.14,6.09,0.3
			c3.27,0.25,6.55,0.33,9.83,0.4c9.05,0.2,18.08,0.75,27.03,2.12c6.26,0.96,12.46,2.21,18.65,3.54c6.63,1.42,13.25,2.87,19.83,4.51
			c12.96,3.21,25.67,7.18,38.08,12.11c25.64,10.2,49.59,23.53,72.26,39.19c18.45,12.75,35.85,26.81,52.48,41.84
			c12.18,11,23.94,22.42,35.07,34.48c5.45,5.9,10.77,11.91,16.11,17.91c3.61,4.06,6.78,8.47,10.06,12.8c2.52,3.34,5.01,6.7,7.58,10
			c2.93,3.75,5.38,7.82,7.9,11.85c0.24,0.38,0.44,0.8,0.6,1.22c0.43,1.1,0.43,2.21-0.08,3.29c-0.24,0.51-0.5,1.01-0.8,1.49
			c-2.83,4.63-5.81,9.16-9.18,13.43c-3.43,4.35-6.68,8.84-10.02,13.26c-3.13,4.16-6.48,8.13-10.02,11.96
			c-5.14,5.56-10.17,11.23-15.4,16.72c-23.14,24.3-48.08,46.55-75.18,66.37c-16.73,12.23-34.25,23.19-52.69,32.64
			c-14,7.17-28.4,13.41-43.32,18.4c-9,3.01-18.14,5.58-27.4,7.69c-5.95,1.36-11.92,2.61-17.85,4.02
			c-5.28,1.26-10.61,2.25-15.95,3.18c-4.35,0.76-8.74,1.17-13.13,1.5c-7.1,0.54-14.22,0.83-21.34,0.93
			c-3.05,0.04-6.1,0.26-9.15,0.39c-1.58,0.07-3.16,0.14-4.74,0.14c-52.7,0.01-105.4,0.01-158.11,0c-1.24,0-2.49,0-3.73-0.03
			c-1.63-0.04-3.42-1.06-3.91-3.17c-0.18-0.77-0.34-1.55-0.4-2.33c-0.07-1.01-0.03-2.03-0.03-3.05c0-25.67,0-51.35,0.24-77.44
			c1.57-0.92,2.91-1.41,3.87-2.54c0.07-0.08,0.17-0.14,0.27-0.18c0.84-0.36,1.42-0.99,1.91-1.75c0.34-0.52,0.96-0.45,1.56-0.17
			c0.08,1.44,0.11,2.57,0.11,3.7c0,7.35,0,14.7,0,22.05c0,17.41,0,34.82,0,52.23c0,1.24,0.07,2.48,0.12,3.72
			c0.02,0.4,0.47,0.86,0.88,0.88c1.24,0.05,2.48,0.11,3.72,0.11c26.34,0.01,52.68,0.01,79.02,0.01c18.43,0,36.85,0,55.28,0
			c1.13,0,2.26,0.01,3.39-0.02c0.45-0.01,0.9-0.08,1.34-0.14c0.5-0.07,1.06-0.62,1.15-1.11c0.35-1.9,0.32-3.82,0.32-5.75
			c0-50.76,0-101.52,0-152.29c0-6.11-0.01-12.21,0-18.32c0.01-3.19-0.27-3.17-3.28-3.17c-18.31,0.01-36.63,0.01-54.94,0.01
			c-1.35,0-2.71-0.03-4.22-0.22c-0.87-0.56-1.64-0.48-2.39-0.36c-0.29,0.05-0.53,0.34-1.11,0.58c-4.68,0.03-9.04,0.01-13.66-0.01
			c-1.25,0.07-1.91-0.49-2.49-1.21c-0.64-0.78-0.67-1.77,0.16-2.35c1.53-1.07,2.19-2.45,2.3-4.25c5.07,0.03,9.81,0.04,14.56,0.04
			c0.68,0,1.37,0.05,2.03-0.09c1.68-0.35,3.37-0.28,5.07-0.28c17.74,0,35.48,0,53.22,0c1.13,0,2.26-0.02,3.39-0.07
			c0.68-0.03,1.31-0.63,1.34-1.3c0.06-1.24,0.09-2.48,0.09-3.73c0-57.18,0-114.37,0-171.55c0-1.13,0.01-2.26-0.01-3.39
			c-0.01-0.45-0.08-0.89-0.15-1.34c-0.07-0.46-0.69-1.1-1.14-1.13c-1.01-0.08-2.03-0.15-3.04-0.15c-11.41-0.01-22.83-0.01-34.23-0.3
			c0-2.05-0.02-3.79,0.69-5.48C310.13,105.3,311.06,104.43,312.75,104.57z M435.32,141.19c-1.23-0.2-2.45-0.44-3.68-0.58
			c-6.86-0.77-13.73-1.37-20.63-1.51c-2.15-0.04-4.3-0.13-6.44-0.18c-10.07-0.25-20.13-0.02-30.17,0.74
			c-3.72,0.28-7.44,0.58-11.15,0.93c-2.25,0.21-4.49,0.51-6.73,0.81c-1.26,0.17-1.4,0.63-1.42,1.52c-0.03,1.13-0.02,2.26-0.02,3.39
			c0,101.45,0,202.91,0,304.36c0,1.02,0,2.04,0.02,3.05c0,0.22,0.03,0.46,0.12,0.66c0.09,0.19,0.24,0.42,0.42,0.47
			c0.64,0.19,1.3,0.38,1.96,0.45c3.26,0.36,6.52,0.7,9.78,1.02c5.51,0.54,11.04,0.96,16.58,1.16c8.82,0.31,17.64,0.31,26.46,0.01
			c7.91-0.26,15.8-0.78,23.65-1.95c6.62-0.99,13.09-2.52,19.38-4.8c9.44-3.43,18.03-8.34,25.67-14.89c2.93-2.51,5.6-5.26,7.94-8.34
			c1.92-2.54,3.54-5.25,4.7-8.22c1.16-2.97,1.93-6.02,1.87-9.24c-0.04-1.85-0.43-3.58-1.41-5.16c-0.48-0.77-0.96-1.54-1.39-2.33
			c-1-1.82-1.5-3.75-1.5-5.84c0.01-2.06,0.32-4.05,0.99-5.99c0.75-2.15,1.72-4.18,2.98-6.07c0.56-0.84,1.27-1.58,1.93-2.35
			c1.05-1.2,2.4-1.64,3.95-1.52c0.45,0.04,0.91,0.04,1.35,0.13c3.21,0.67,6.38,1.48,9.47,2.58c1.99,0.71,3.52,2.02,4.53,3.88
			c0.49,0.89,0.92,1.81,1.34,2.74c0.65,1.44,1.24,2.91,1.89,4.35c1.77,3.98,4.23,7.46,7.44,10.41c1.61,1.48,3.43,2.53,5.54,3.15
			c2.84,0.85,5.73,1.26,8.66,1.55c5.45,0.53,10.58-0.46,15.34-3.2c3.66-2.11,6.84-4.81,9.46-8.13c4.37-5.55,7.8-11.62,10.17-18.28
			c0.69-1.93,1.13-3.9,1.42-5.92c0.35-2.45-0.12-4.73-1.31-6.86c-0.55-0.98-1.16-1.95-1.9-2.8c-1.41-1.62-2.88-3.18-4.4-4.7
			c-1.56-1.55-3.36-2.68-5.67-2.69c-0.11,0-0.22-0.03-0.34-0.05c-2.23-0.45-3.93-1.64-5.13-3.57c-0.85-1.36-1.4-2.85-1.72-4.4
			c-0.54-2.66-0.92-5.36-0.75-8.09c0.05-0.9,0.17-1.8,0.36-2.68c0.63-2.83,2.43-4.5,5.24-5.13c3.11-0.7,6.29-0.65,9.44-0.83
			c0.22-0.01,0.45,0.06,0.67,0.08c2.71,0.27,4.62,1.7,5.86,4.06c0.26,0.5,0.47,1.03,0.7,1.54c0.32,0.72,0.6,1.46,0.96,2.17
			c0.31,0.62,0.78,1.07,1.46,1.33c2,0.78,3.96,1.65,5.97,2.41c5.76,2.19,11.7,2.3,17.72,1.49c0.33-0.05,0.66-0.16,0.99-0.23
			c2.25-0.51,4.22-1.57,6.05-2.95c2.63-1.99,4.89-4.37,7.01-6.88c2.99-3.55,5.62-7.37,8.07-11.31c5.01-8.08,9.27-16.56,13.36-25.13
			c0.09-0.19,0.1-0.43,0.17-0.76c-2.93-6.13-5.94-12.33-9.33-18.34c-2.89-5.12-5.9-10.17-9.43-14.89c-2.1-2.81-4.31-5.54-6.89-7.93
			c-1.24-1.15-2.58-2.2-3.93-3.22c-1.55-1.18-3.33-1.94-5.24-2.3c-1.77-0.33-3.59-0.43-5.38-0.64c-1.92-0.22-3.83-0.12-5.75,0.13
			c-4.77,0.6-9.18,2.31-13.53,4.26c-0.67,0.3-1.1,0.78-1.39,1.41c-0.57,1.23-1.03,2.52-1.67,3.71c-1.34,2.47-3.39,3.94-6.28,3.9
			c-2.6-0.03-5.2-0.17-7.79-0.35c-0.89-0.06-1.79-0.29-2.64-0.58c-2.16-0.74-3.67-2.15-4.3-4.42c-0.27-0.99-0.46-1.97-0.51-3
			c-0.12-2.85,0.24-5.65,0.8-8.42c0.27-1.33,0.75-2.61,1.41-3.8c1.23-2.2,3.05-3.6,5.56-4.03c0.67-0.11,1.35-0.19,2-0.34
			c0.77-0.18,1.5-0.47,2.14-0.97c3.05-2.4,5.71-5.15,7.74-8.46c1.41-2.3,1.95-4.77,1.54-7.47c-0.29-1.91-0.69-3.77-1.34-5.59
			c-2.39-6.78-5.87-12.95-10.33-18.58c-1.98-2.5-4.33-4.61-6.92-6.46c-5.49-3.92-11.61-5.43-18.28-4.76
			c-2.36,0.24-4.69,0.7-7.01,1.23c-2.83,0.65-5.24,2.02-7.31,4.06c-2.84,2.82-5.11,6.03-6.75,9.68c-0.65,1.44-1.25,2.91-1.9,4.35
			c-0.46,1.03-0.93,2.06-1.48,3.05c-0.91,1.63-2.26,2.81-3.98,3.54c-0.62,0.26-1.25,0.54-1.9,0.71c-2.51,0.67-5.02,1.34-7.55,1.94
			c-3.97,0.94-5.03-0.3-7.07-2.61c-0.15-0.17-0.28-0.36-0.4-0.55c-1.65-2.58-3.02-5.29-3.74-8.3c-0.94-3.9-0.68-7.63,1.6-11.06
			c0.19-0.28,0.37-0.57,0.55-0.86c1.18-1.87,1.74-3.9,1.65-6.12c-0.07-1.58-0.21-3.14-0.58-4.7c-1.1-4.59-3.24-8.66-6.07-12.39
			c-2.4-3.17-5.17-5.99-8.21-8.54c-9.86-8.29-21.09-13.88-33.54-17.12C442.12,142.46,439.02,141.85,435.32,141.19z"/>
		<path class="st1" d="M201.91,401.15c-0.54,0.04-1.16-0.04-1.5,0.49c-0.49,0.76-1.07,1.39-1.91,1.75c-0.1,0.04-0.21,0.1-0.27,0.18
			c-0.96,1.14-2.3,1.62-3.85,2.22c-0.71-0.16-1.21-0.42-1.71-0.67c-1.68-0.83-2.88-2.13-3.7-3.79c-0.4-0.81-0.74-1.64-1.08-2.47
			c-1.81-4.51-4.23-8.68-7.06-12.63c-1.18-1.65-2.37-3.29-3.46-4.99c-1.03-1.6-2.05-3.23-2.91-4.93c-2.04-4.01-2.79-8.29-2.32-12.76
			c0.12-1.12,0.34-2.22,0.72-3.79c0.61-1.72,1.02-2.97,1.42-4.24c0.08-0.25-0.08-0.4-0.34-0.49c-0.88-0.3-1.45-0.05-1.38,0.74
			c0.12,1.38-0.26,2.63-0.74,3.87c-1.73,1.73-3.83,1.78-6,1.22c-1.75-0.45-3.43-1.16-5.01-2.06c-1.87-1.06-3.7-2.17-5.56-3.26
			c-0.49-0.29-0.96-0.61-1.7-0.49c-0.29,1.01-0.58,2.08-0.91,3.14c-0.38,1.22-1.35,1.79-2.62,1.57c-0.44-0.08-0.87-0.22-1.31-0.33
			c-0.77-0.18-1.54-0.36-2.31-0.55c-0.57-0.13-1.12-0.08-1.66,0.13c-2.86,1.08-5.83,1.77-8.82,2.41c-1.77,0.38-3.51,0.85-5.26,1.3
			c-0.82,0.21-1.54,0.03-2.24-0.43c-3.44-2.26-6.41-4.99-8.58-8.54c-0.11-0.18-0.34-0.29-0.52-0.41c-0.09-0.06-0.21-0.09-0.23-0.1
			c-2.89,1.58-5.87,1.82-8.89,0.83c-2.8-0.92-4.45-3.01-5.09-5.86c-0.17-0.77-0.24-1.56-0.38-2.51c-0.59-0.52-1.25-1.12-1.93-1.71
			c-0.88-0.76-1.87-1.21-3.04-1.38c-2.68-0.37-4.9-1.68-6.76-3.59c-1.98-2.04-3.65-4.31-4.75-6.96c-0.39-0.94-0.83-1.85-1.3-2.75
			c-1.16-2.22-2.16-4.48-2.27-7.04c-0.04-0.82-0.35-0.95-1.4-0.75c-0.33,0.06-0.66,0.16-1,0.19c-1.5,0.12-2.62-0.64-3.07-2.1
			c-0.17-0.54-0.34-1.1-0.35-1.65c-0.05-2.95,0.08-5.87,1.2-8.67c0.97-2.42,1.99-4.8,3.22-7.1c0.43-0.79,0.84-1.59,1.28-2.43
			c-0.25-0.29-0.43-0.55-0.66-0.76c-1.53-1.33-1.55-2.94-0.76-4.62c0.43-0.91,1-1.77,1.56-2.62c0.56-0.85,1.18-1.66,1.79-2.47
			c1.1-1.46,1.88-3.08,2.43-4.82c0.62-1.94,1.25-3.87,1.89-5.8c0.78-2.37,1.77-4.65,2.95-6.84c0.81-1.49,1.74-2.92,2.93-4.14
			c1.49-1.52,3.21-2.49,5.45-2.16c0.32,0.05,0.66-0.04,1.1-0.08c0.65-0.71,1.32-1.47,2.01-2.21c1.16-1.24,2.38-2.41,3.77-3.4
			c1.02-0.73,2.11-1.34,3.3-1.71c2.25-0.7,4.46-0.65,6.52,0.67c0.57,0.37,1.1,0.8,1.69,1.12c0.26,0.14,0.68,0.15,0.97,0.04
			c0.63-0.23,1.23-0.56,1.83-0.87c2-1.05,3.95-2.21,6.01-3.14c2.57-1.16,5.19-2.31,8.12-1.5c0.86-0.98,1.6-1.82,2.33-2.67
			c1.19-1.37,2.46-2.66,3.9-3.76c1.17-0.9,2.44-1.63,3.9-1.97c1.79-0.42,3.42,0.46,4.05,2.19c0.25,0.7,0.02,1.33-0.11,1.99
			c-0.11,0.55,0.29,1.17,0.82,1.27c0.66,0.12,1.33,0.17,2,0.25c2.77,0.31,5.36-0.32,7.93-1.32c8.01-3.12,15.01-7.83,21.39-13.51
			c2.12-1.89,3.95-4.04,5.31-6.56c0.81-1.5,1.41-3.06,1.78-4.74c1.04-4.75,2.01-9.51,2.65-14.33c0.84-2.76,0.65-5.6,0.67-8.42
			c0.01-1.36,0.01-2.71,0.34-4.39c0.89-0.38,1.5-0.5,1.59-1.16c0.13-1.01,0.49-1.93,0.92-2.83c0.19-0.4,0.43-0.82,0.46-1.24
			c0.09-1.39,0.77-2.53,1.37-3.72c0.69-1.39,1.38-2.79,2.09-4.17c0.41-0.8,0.74-1.6,0.75-2.53c0-0.3,0.24-0.6,0.62-0.94
			c0.74-0.5,1.26-0.94,1.69-1.44c0.51-0.6,0.9-1.3,1.43-1.88c3.8-4.2,7.89-8.05,12.74-11.04c5.01-3.09,10.32-5.57,15.68-7.95
			c4.64-2.06,9.45-3.68,14.2-5.47c2.32-0.87,4.61-1.83,6.86-2.87c2.56-1.19,5.07-2.47,7.56-3.79c3.79-2,7.49-4.19,10.99-6.65
			c4.24-2.98,8.47-5.98,12.45-9.32c1.3-1.09,2.52-2.2,3.6-3.53c1.73-2.13,3.02-4.51,4.05-7.01c1.11-2.7,2.19-5.46,1.8-8.73
			c0.16-0.75,0.48-1.31,0.39-1.79c-0.16-0.86-0.52-1.76-1.33-2.2c-1.02-0.55-1.64-1.4-2.26-2.33c-0.35-0.53-0.96-0.89-1.45-1.32
			c0.16-0.29,0.37-0.58,0.23-0.94c-0.97-2.5-0.89-5.07-0.55-7.67c0.22-1.69,0.68-3.31,1.28-4.89c0.56-1.47,1.14-2.95,1.82-4.37
			c2.43-5.08,4.9-10.15,6.82-15.46c0.19-0.53,0.45-1.03,0.72-1.53c0.16-0.3,0.36-0.58,0.59-0.82c1.29-1.33,2.77-1.02,3.78,0.24
			c0.28,0.35,0.49,0.76,0.65,1.18c0.32,0.84,0.57,1.71,0.86,2.56c0.29,0.84,0.61,1.68,0.94,2.61c0.5,0.01,0.93,0.02,1.36,0.02
			c1.36,0,2.35,0.65,3.09,1.75c0.06,0.09,0.13,0.19,0.18,0.29c2.32,4.45,3.92,9.1,3.89,14.2c-0.01,3.58-0.82,6.92-2.89,9.9
			c-0.51,0.73-1.1,1.44-0.82,2.67c-1.53,0.09-2.46,0.96-3.09,2.45c-0.72,1.69-0.7,3.43-0.72,5.76c-0.26,1.79-0.45,3.02-0.7,4.23
			c-0.75,3.54-1.76,7.01-3.16,10.36c-2.91,6.95-7.04,13.12-12.13,18.66c-0.61,0.66-1.28,1.27-1.96,1.88
			c-0.92,0.83-1.89,1.61-2.81,2.44c-2.43,2.21-5.09,4.14-7.83,5.92c-2.65,1.72-5.27,3.51-8.13,4.89c-0.29,0.14-0.52,0.42-0.76,0.66
			c-0.06,0.06-0.04,0.21-0.02,0.31c0.02,0.09,0.07,0.25,0.13,0.26c1.58,0.27,3.14,0.09,4.7-0.17c0.78-0.13,1.56-0.35,2.34-0.35
			c2.28-0.02,4.49-0.56,6.7-0.96c5.46-1.01,10.71-2.77,15.66-5.32c1-0.52,2.01-1.04,3.06-1.46c2.63-1.04,5.26-1.97,8.18-1.97
			c3.75,0.01,7.45,0.15,11.05,1.35c0.21,0.07,0.45,0.07,0.66,0.13c3.93,1.09,7.8,2.34,11.36,4.37c2.26,1.29,4.45,2.73,6.02,4.87
			c3.24,4.39,5.09,9.28,5.05,14.81c0,0.57-0.03,1.13,0,1.7c0.14,2.49-0.81,4.63-2.06,6.7c-0.76,1.25-1.92,1.94-3.29,2.18
			c-2.1,0.36-4.06,0.05-5.58-1.67c-0.52-0.59-1.11-1.12-1.67-1.69c-1.11-1.13-2.15-2.34-3.35-3.37c-2.31-1.98-4.64-3.92-7.79-4.55
			c-2.75-0.55-5.38-0.6-7.87,0.87c-0.97,0.57-1.98,1.09-2.91,1.73c-1.67,1.16-3.29,2.38-4.93,3.58c-2.83,2.07-5.57,4.26-8.5,6.17
			c-4.74,3.08-9.63,5.89-15,7.81c-3.19,1.14-6.32,2.47-9.3,4.1c-1.38,0.76-2.69,1.66-4.02,2.51c-0.19,0.12-0.33,0.31-0.49,0.46
			c-0.48,0.44-0.45,1.11,0.1,1.41c3.48,1.88,6.96,3.78,10.68,5.14c6.05,2.21,12.16,4.21,18.51,5.39c2.33,0.44,4.67,0.83,6.96,1.41
			c4.18,1.06,8.23,2.43,11.69,5.16c1.34,1.06,2.57,2.2,3.62,3.54c2.46,3.11,4.64,6.39,6.62,9.82c1.98,3.44,4.35,6.62,7.01,9.54
			c2.06,2.25,4.08,4.54,6.07,6.84c2.14,2.47,3.37,5.33,3.45,8.63c0.03,1.36-0.03,2.71-0.03,4.07c0,1.89-0.74,3.54-1.79,5.04
			c-1.27,1.8-3.21,2.63-5.29,2.54c-2.27-0.1-4.43-0.97-6.2-2.48c-1.8-1.54-3.54-3.18-4.94-5.12c-1.25-1.74-2.48-3.5-3.66-5.29
			c-1.68-2.55-3.53-4.97-5.44-7.35c-0.28-0.35-0.61-0.67-0.94-0.97c-0.85-0.75-1.72-1.46-2.56-2.21c-1.36-1.22-2.85-2.24-4.51-2.99
			c-3.33-1.5-6.89-2.19-10.51-2.35c-2.7-0.12-5.43-0.28-8.1,0.43c-3.05,0.11-6.07,0.46-9.11,0.77c-2.13,0.22-4.29,0.12-6.44,0.14
			c-2.6,0.03-5.2-0.07-7.74-0.75c-0.76-0.21-1.53-0.4-2.29-0.59c-0.59-0.14-1.16,0.25-1.21,0.84c-0.17,1.91-0.35,3.81-0.66,5.71
			c-0.64,3.91-1.52,7.74-2.6,11.54c-1.72,6.07-4.73,11.46-8.25,16.61c-0.57,0.83-1.18,1.72-1.97,2.31c-1.6,1.17-2.5,2.9-3.79,4.31
			c-0.48,0.52-0.34,1.3,0.26,1.79c0.53,0.42,1.1,0.79,1.65,1.18c1.66,1.17,3.35,2.3,4.98,3.52c1.54,1.15,3,2.39,4.48,3.57
			c2.09,0.26,4.13,0.08,6.16,0.12c1.24,0.03,2.49-0.07,3.7,0.34c0.21,1.83-0.45,3.2-1.98,4.27c-0.83,0.58-0.8,1.57-0.16,2.35
			c0.58,0.71,1.25,1.27,2.57,1.45c1.45,1.53,2.88,1.98,4.54,1.73c0.66-0.1,1.31-0.29,1.96-0.44c1.96-0.47,3.92-0.93,5.95-0.92
			c0.33,0,0.67-0.08,0.98-0.2c0.19-0.07,0.31-0.29,0.47-0.45c0.26-0.18,0.51-0.47,0.79-0.52c0.75-0.13,1.52-0.2,2.56,0.56
			c0.54,0.44,0.75,0.55,0.97,0.57c3.65,0.4,7.06,1.55,10.23,3.37c1.76,1.01,3.43,2.19,5.16,3.25c2.06,1.26,3.68,3,5.24,4.78
			c1.19,1.37,2.18,2.9,2.63,4.7c0.76,3.11-0.08,5.37-3.17,7.06c-1,0.55-2.12,0.78-3.26,0.83c-2.15,0.08-4.29,0-6.43-0.34
			c-1.11-0.18-2.24-0.3-3.36-0.36c-4.99-0.28-9.93,0.06-14.84,1.08c-1.21,0.25-2.47,0.27-3.71,0.34c-2.06,0.11-4.06-0.18-5.98-0.98
			c-1.56-0.66-3.14-1.28-4.67-2.02c-3.25-1.58-6.49-3.21-9.71-4.85c-3.23-1.65-6.58-2.99-10.04-4.07c-4.03-1.25-8.1-1.96-12.35-1.84
			c-1.75,0.05-3.07,0.53-4.06,1.95c-0.32,0.46-0.72,0.88-1,1.37c-0.56,0.98-1.11,1.97-1.59,2.98c-1.6,3.37-3.06,6.81-5.33,9.82
			c-0.06,0.08-0.08,0.21-0.11,0.31c-0.08,0.28,0.02,0.44,0.28,0.52c1.15,0.36,2.22-0.18,3.33-0.28c1.15-0.1,2.21,0.98,2.06,2.15
			c-0.07,0.54-0.23,1.13-0.53,1.57c-1.65,2.43-3.37,4.81-5.49,6.88c-2.68,2.61-5.63,4.91-8.59,7.16c-2.09,1.59-4.45,2.68-7.1,3.01
			c-0.22,0.03-0.44,0.1-0.66,0.16c-0.39,0.1-0.78,0.55-0.8,0.98c-0.04,0.79-0.08,1.58-0.08,2.37c-0.01,8.71,0,17.42-0.01,26.13
			c0,2.04,0.18,4.05,0.52,6.07c0.48,2.79,0.63,5.65,0.09,8.44C202.4,398.03,202.18,399.59,201.91,401.15z M206.32,185.3
			c0,0,0.01,0.03-0.31,0.1c-0.2,0.16-0.26,0.36-0.55,0.92c-1.11,1.56-2.22,3.11-2.93,5.37c-1.86,4.28-2.86,8.8-3.66,13.36
			c-0.95,5.45-1.82,10.91-2.63,16.38c-0.2,1.33-0.74,2.61-0.86,4.44c-0.73,2.06-1.45,4.12-2.53,6.46c-0.97,1.92-2.11,3.7-3.67,5.23
			c-5.01,4.94-10.6,9.1-16.62,12.72c-1.06,0.64-2.16,1.22-3.21,1.86c-0.13,0.08-0.12,0.39-0.17,0.54c1.44,0.89,2.94,1.67,4.27,2.67
			c1.1,0.82,2.13,1.04,3.45,0.71c3.19-0.79,6.46-0.97,9.72-1.14c0.55-0.03,1.13,0.05,1.67,0.17c0.8,0.19,1.43,0.64,1.77,1.43
			c0.13,0.31,0.2,0.66,0.37,0.94c0.17,0.27,0.4,0.56,0.67,0.71c0.59,0.32,1.18,0.68,2.08,1.03c0.6,0.7,1.36,1.12,2.22,1.43
			c1.15,0.41,2.31,0.85,3.4,1.4c1.4,0.71,2.2,1.86,2.14,3.51c-0.01,0.22-0.08,0.48,0.01,0.66c0.13,0.29,0.31,0.61,0.57,0.76
			c0.38,0.22,0.84,0.28,1.26,0.44c0.83,0.33,1.68,0.62,2.47,1.04c1.48,0.78,2.44,1.94,2.42,3.72c0,0.22,0.04,0.45-0.25,1.05
			c-0.06,0.1-0.11,0.2-0.17,0.29c-0.5,0.89-0.33,1.36,0.41,1.66c2.52,1.05,4.71,2.63,6.93,4.17c1.14,0.79,2.03,1.79,2.73,2.95
			c1.16,1.91,1.24,3.83-0.14,5.68c-0.34,0.45-0.74,0.85-1.1,1.28c-0.27,0.33-0.32,0.76-0.12,0.91c0.17,0.12,0.35,0.3,0.53,0.32
			c1.23,0.09,2.47,0.12,3.71,0.21c1.8,0.14,3.6,0.23,5.38,0.5c1.1,0.17,2.2,0.52,3.21,0.99c1.41,0.65,2.61,2.56,1.24,4.56
			c-0.44,0.65-0.98,1.23-1.88,2.03c-1.25,0.96-2.49,1.95-3.77,2.88c-0.54,0.39-1.16,0.72-1.78,0.97c-0.64,0.26-1.33,0.25-2,0.05
			c-0.98-0.29-1.56-1.69-0.99-2.48c0.39-0.54,0.84-1.06,1.35-1.5c0.6-0.51,1.3-0.9,1.93-1.37c0.36-0.27,0.68-0.59,1.02-0.9
			c0.3-0.27,0.42-0.78,0.21-0.89c-0.19-0.1-0.37-0.27-0.56-0.27c-3.28-0.04-6.54-0.22-9.79-0.71c-2.16-0.32-4.17-0.99-6.04-2.09
			c-0.28-0.16-0.5-0.45-0.71-0.71c-0.69-0.88-0.54-2.07,0.36-2.67c0.47-0.31,0.98-0.54,1.48-0.81c1.2-0.63,2.42-1.23,3.6-1.89
			c0.79-0.45,1.01-1.67,0.4-2.38c-0.66-0.76-1.36-1.53-2.16-2.12c-2.38-1.76-4.96-3.14-7.92-3.68c-0.43-0.08-0.86-0.27-1.25-0.48
			c-1.09-0.6-1.49-1.81-0.92-2.89c0.42-0.79,0.94-1.53,1.42-2.29c0.15-0.25-0.05-0.76-0.32-0.84c-2.28-0.67-4.54-1.35-6.94-0.38
			c-0.91,0.37-1.76-0.05-2.45-0.75c-1.09-1.11-1.28-2.57-0.26-4c0.99-1.39,0.39-1.78-0.7-2.24c-0.93-0.39-1.91-0.74-2.9-0.91
			c-1.71-0.29-2.89-1.17-3.68-2.67c-0.15-0.29-0.41-0.51-0.67-0.84c-0.55,0-1.12-0.09-1.66,0.01c-3.32,0.63-6.7,0.9-9.97,1.83
			c-1.31,0.37-2.12,0.07-2.95-1.02c-0.2-0.27-0.38-0.56-0.54-0.86c-0.4-0.73-1.05-1.15-1.76-1.53c-2.23-1.2-4.64-1.72-7.15-1.89
			c-0.79-0.05-1.63,0.13-2.36-0.09c-1.55-0.46-3.13-0.45-4.7-0.49c-1.27-0.03-2.46-0.39-3.63-0.78c-1.14-0.38-1.91-1.17-2.11-2.42
			c-0.03-0.22-0.04-0.45-0.1-0.67c-0.11-0.47-0.59-0.62-1.04-0.34c-0.29,0.18-0.62,0.31-0.85,0.55c-0.94,0.97-1.87,1.95-2.78,2.96
			c-0.9,1.01-1.75,2.07-2.65,3.08c-0.73,0.83-1.65,1.15-2.75,0.85c-0.11-0.03-0.23-0.04-0.32-0.09c-1.33-0.68-2.61-0.37-3.93,0.13
			c-2.44,0.94-4.75,2.12-6.97,3.47c-1.17,0.71-2.39,1.25-3.67,1.71c-1.29,0.47-2.45,0.27-3.56-0.4c-0.77-0.46-1.49-1.02-2.26-1.48
			c-0.93-0.56-1.94-0.57-2.94-0.17c-0.42,0.17-0.86,0.33-1.21,0.61c-1.42,1.11-2.98,2.05-4.03,3.58c-0.38,0.55-0.88,1.03-1.35,1.52
			c-1.94,1.98-2.16,2.27-5.03,2.09c-0.11-0.01-0.23,0-0.34-0.01c-1-0.05-1.72,0.42-2.28,1.2c-1.13,1.57-2.09,3.22-2.82,5.01
			c-1.06,2.62-2.06,5.26-2.84,7.97c-0.98,3.41-2.59,6.49-4.78,9.28c-0.35,0.44-0.66,0.91-0.98,1.37c-0.18,0.26-0.08,0.81,0.19,0.88
			c1.12,0.29,2.04,0.91,2.67,2.21c-0.23,1.15-0.9,2.05-1.58,2.96c-2.88,3.89-4.55,8.29-5.56,12.98c-0.05,0.22-0.07,0.46-0.03,0.67
			c0.04,0.18,0.18,0.36,0.31,0.5c0.03,0.04,0.24-0.01,0.31-0.08c0.66-0.61,1.26-1.29,1.96-1.84c0.56-0.44,1.28-0.44,1.94-0.17
			c0.69,0.28,1.13,0.88,1.06,1.59c-0.19,1.94,0.18,3.83,0.37,5.74c0.34,3.52,1.33,6.87,2.79,10.08c0.94,2.07,2.11,4,3.75,5.6
			c0.39,0.38,0.89,0.89,1.35,0.92c0.69,0.04,0.56-0.8,0.78-1.27c0.09-0.2,0.17-0.43,0.29-0.61c0.4-0.6,0.97-0.97,1.69-0.96
			c0.72,0.01,1.33,0.39,1.67,1.01c0.32,0.58,0.47,1.26,0.75,1.88c0.23,0.51,0.46,1.04,0.8,1.47c2.5,3.06,5.61,5.22,9.45,6.26
			c0.22,0.06,0.44,0.09,0.66,0.14c0.49,0.11,1.22-0.04,1.22-0.26c-0.01-0.33-0.01-0.71-0.17-0.97c-1.07-1.74-2.29-3.36-3.65-4.88
			c-0.37-0.42-0.73-0.86-1.03-1.33c-0.33-0.51-0.35-1.08-0.05-1.61c0.28-0.49,0.57-0.99,0.96-1.38c1.41-1.4,1.5-2.95,0.64-4.65
			c-0.2-0.4-0.37-0.83-0.51-1.26c-0.3-0.94-0.09-1.8,0.58-2.51c0.38-0.4,0.83-0.78,1.3-1.06c1.03-0.62,1.72-1.49,1.91-2.66
			c0.21-1.29,1.08-1.91,2.66-2.11c1.12,0.41,1.54,1.28,1.46,2.39c-0.12,1.62-0.74,3.05-1.8,4.28c-0.44,0.51-0.92,0.97-1.39,1.46
			c0.05,0.37,0.04,0.71,0.14,1.02c0.64,2.15,0.54,4.23-0.54,6.22c-0.22,0.4-0.43,0.79-0.21,1.46c2.94,3.5,5.24,7.61,7.24,11.92
			c0.13,0.29,0.41,0.51,0.63,1.08c0,0,0.21,0.23,0.19,0.59c0.16,0.17,0.32,0.33,0.55,0.95c0.89,1.73,2.17,3.16,3.61,4.44
			c0.22,0.19,0.59,0.21,0.99,0.34c0.26-0.81,0.51-1.55,0.73-2.31c0.29-0.97,0.53-1.96,0.85-2.93c0.38-1.14,1.28-1.71,2.31-1.56
			c0.91,0.14,1.51,0.8,1.67,1.86c0.03,0.22,0.03,0.45,0.01,0.68c-0.04,0.5,0.13,0.93,0.56,1.14c1.35,0.65,1.72,1.69,1.34,3.08
			c-0.03,0.1,0,0.26,0.07,0.32c0.15,0.14,0.34,0.33,0.5,0.32c0.33-0.02,0.65-0.16,1.51-0.23c1.16-0.38,2.48-0.33,3.43-1.31
			c-0.14-0.33-0.26-0.64-0.4-0.94c-0.42-0.92-0.29-1.75,0.37-2.5c0.52-0.59,1.08-1.16,1.56-1.78c1.86-2.39,2.94-5.05,2.78-8.13
			c-0.07-1.24-0.2-2.47-0.27-3.71c-0.03-0.56-0.02-1.12,0.03-1.68c0.06-0.59,0.71-1.21,1.34-1.37c0.71-0.17,1.37-0.02,1.85,0.51
			c0.3,0.32,0.58,0.74,0.66,1.16c0.53,2.54,0.99,5.07,0.5,7.7c-0.4,2.13-1.07,4.14-2.19,5.99c-0.52,0.86-1.02,1.72-1.48,2.51
			c0.52,1.17,1.34,1.7,2.44,1.72c0.27,0,0.55-0.29,0.81-0.47c0.07-0.05,0.07-0.21,0.09-0.32c0.19-1.34,0.73-2.34,2.22-2.6
			c0.26-0.04,0.53-0.39,0.68-0.66c1.14-1.96,2.01-4.03,2.24-6.32c0.07-0.67,0.17-1.35,0.33-2c0.16-0.65,0.41-1.27,0.61-1.84
			c-0.46-1.32-0.97-2.58-1.34-3.86c-0.4-1.36,0.05-2.44,1.89-2.96c0.86,0.1,1.48,0.57,1.82,1.34c0.32,0.72,0.55,1.48,0.84,2.21
			c0.34,0.88,0.43,1.76-0.01,2.63c-0.27,0.55-0.18,1.05,0.01,1.62c0.18,0.52,0.28,1.11,0.22,1.66c-0.19,1.91-0.42,3.83-1.09,5.64
			c-0.99,2.66-1.26,2.38,1.35,3.92c1.84,1.09,3.75,2.08,5.65,3.08c0.49,0.26,1.06,0.39,1.6,0.53c0.2,0.05,0.44-0.01,0.66-0.03
			c0.38-0.03,0.86-0.62,0.75-0.98c-0.13-0.42-0.27-0.87-0.51-1.23c-0.43-0.66-1.03-1.22-1.41-1.9c-0.47-0.83-0.46-2.35,0.72-2.97
			c0.53-0.28,1.05-0.31,1.63-0.14c3.04,0.9,6.14,1.53,9.26,2.06c0.65,0.11,1.34,0.07,2.01,0.05c0.27-0.01,0.43-0.23,0.36-0.47
			c-0.16-0.53-0.4-1.04-0.53-1.58c-0.35-1.39,0.34-2.41,1.33-3.25c0.78-0.66,1.67-0.56,2.55-0.18c0.52,0.22,1.05,0.42,1.57,0.65
			c0.86,0.38,1.74,0.44,2.97,0.75c1.68,0.76,3.44,1.04,5.27,1.03c2.48-0.01,4.97-0.07,7.45,0.01c2.12,0.07,3.98-0.58,5.79-1.6
			c4.18-2.34,7.75-5.43,11.03-8.88c0.08-0.08,0.13-0.19,0.17-0.29c0.04-0.1,0.08-0.21,0.08-0.31c0-0.28-0.14-0.44-0.39-0.45
			c-1.24-0.06-2.48-0.06-3.71-0.19c-1.01-0.11-2.43-1.55-1.83-3.09c0.29-0.75,0.63-1.45,1.24-1.99c0.25-0.23,0.49-0.47,0.77-0.66
			c3.07-2,4.82-4.99,6.28-8.22c0.7-1.54,1.36-3.1,2.1-4.62c1.19-2.46,2.8-4.62,4.78-6.51c0.11-0.11,0.06-0.38,0.1-0.69
			c-0.67-0.04-1.35-0.03-2.01-0.12c-1.12-0.14-2.23-0.31-3.33-0.54c-0.81-0.17-1.37-0.88-1.44-1.69c-0.08-0.85,0.22-1.56,0.94-2.04
			c0.37-0.25,0.78-0.47,1.19-0.63c2.19-0.89,4.39-1.77,6.59-2.65c0.94-0.38,1.87-0.76,3.29-1.09c0.22,0.02,0.45,0.04,0.67,0.07
			c1.78,0.26,2.39,2.34,1.03,3.56c-0.17,0.15-0.36,0.27-0.52,0.42c-0.6,0.54-0.59,0.98,0.1,1.17c1.09,0.3,1.74,0.93,1.99,2.03
			c0.07,0.3,0.31,0.56,0.47,0.83c0.7,0.18,1.34,0.39,1.99,0.52c3.62,0.77,7.2,1.68,10.69,2.9c0.42,0.15,0.87,0.21,1.66,0.6
			c4.07,1.9,8.3,3.42,12.3,5.45c0.1,0.05,0.22,0.05,0.58,0.45c1.26,0.72,2.48,1.52,3.78,2.13c1.51,0.71,3.07,1.31,4.65,1.85
			c1.39,0.48,2.83,0.55,4.85,0.06c2.55-0.46,5.11-0.86,7.65-1.39c1.34-0.28,2.66-0.38,4.02-0.37c3.29,0.03,6.52,0.52,9.75,1.02
			c1,0.16,2,0.37,3.56,0.34c1.11,0.09,2.19,0.01,3.21-0.52c0.7-0.36,1.13-1.21,0.91-1.93c-0.46-1.49-1.16-2.84-2.7-4.15
			c-2.07-1.99-4.36-3.68-6.78-5.21c-0.36-0.23-0.8-0.34-1.48-0.89c-4.2-2.43-8.72-2.62-13.91-2.01c-1.76,0.27-3.59,0.33-5.26,0.87
			c-1.47,0.47-2.82,0.47-4.25,0.15c-2.43-0.54-4.7-1.38-6.5-3.21c-0.38-0.38-0.93-0.6-1.64-1.29c-1-0.91-1.99-1.84-3.01-2.73
			c-1.62-1.41-3.3-2.74-4.89-4.19c-3.02-2.74-6.21-5.26-9.67-7.43c-4.5-2.83-9.14-5.41-14.04-7.48c-2.6-1.1-5.17-2.27-7.72-3.49
			c-1.01-0.48-1.93-1.16-2.85-1.8c-0.58-0.4-0.84-1.04-1.05-1.7c-0.22-0.7,0.07-1.59,0.71-2.12c0.57-0.47,1.6-0.52,2.23-0.09
			c0.84,0.57,1.61,1.26,2.51,1.71c2.22,1.12,4.49,2.13,6.74,3.18c2.46,1.15,4.91,2.29,7.37,3.42c0.5,0.23,1.01,0.43,1.58,0.66
			c0.47-0.44,0.9-0.8,1.28-1.2c2.87-3.05,5.54-6.26,7.99-9.66c2.06-2.88,3.53-6.04,4.63-9.39c1.23-3.76,2.14-7.61,2.85-11.5
			c0.35-1.91,0.49-3.81,0.37-5.73c-0.22-3.5-0.44-6.99-0.8-10.48c-0.55-5.31-0.59-10.59,0.18-15.89c0.98-6.68,3.71-12.52,8.07-17.63
			c1.48-1.74,3.25-3.1,5.29-4.16c2.61-1.36,5.3-2.52,8-3.68c0.4-0.17,0.75-0.45,1.61-0.72c1.43-0.63,3.02-0.94,4.77-1.97
			c2.83-1.11,5.47-2.59,8.08-4.15c3.86-2.31,7.43-5.04,11.04-7.71c1.9-1.4,3.79-2.81,5.73-4.15c2.33-1.6,4.8-2.92,7.64-3.37
			c0.32-0.05,0.62-0.25,1.48-0.27c1.81,0.09,3.58,0.39,5.32,0.93c3.41,1.06,6.33,2.93,8.94,5.32c0.91,0.83,1.81,1.68,2.89,2.96
			c0.8,0.79,1.57,1.62,2.42,2.36c0.91,0.81,1.84,0.56,2.49-0.55c0.7-1.19,1.06-2.47,1.13-3.85c0.15-2.74-0.31-5.37-1.17-7.98
			c-1.42-4.28-4.03-7.49-7.99-9.64c-2.49-1.35-5.11-2.37-7.81-3.18c-0.2-0.06-0.45,0-1.11-0.27c-1.83-0.6-3.7-1.01-5.58-1.38
			c-4.47-0.89-8.77-0.48-12.91,1.44c-1.23,0.57-2.47,1.12-3.7,1.69c-4.01,1.84-8.1,3.48-12.41,4.49c-1.21,0.28-2.41,0.61-4.16,0.84
			c-1.45,0.23-2.9,0.5-4.35,0.67c-4.38,0.52-8.75,1.05-13.13,1.5c-4.27,0.44-8.55,0.84-12.82,1.19c-3.49,0.29-6.99,0.48-10.49,0.72
			c-0.22,0.02-0.43,0.12-1.24,0.07c-1.23,0.04-2.46,0.11-3.69,0.1c-0.55,0-1.11-0.11-1.64-0.27c-0.7-0.21-1.08-0.76-1.22-1.46
			c-0.16-0.78,0.23-1.6,0.89-2.01c0.59-0.37,1.23-0.49,1.92-0.51c1.9-0.05,3.8-0.07,5.7-0.18c2.23-0.14,4.47-0.17,7.24-0.57
			c4.54-0.22,4.54-0.22,8.38-2.15c0.4-0.2,0.81-0.4,1.21-0.61c5.72-2.92,11.37-5.95,16.7-9.55c3.56-2.4,6.9-5.06,9.94-8.09
			c0.79-0.79,1.65-1.53,2.55-2.78c8.07-8.93,12.48-19.46,13.71-31.39c0.02-0.22,0.03-0.45,0.03-0.67c-0.02-0.62-0.3-1.08-0.86-1.33
			c-0.41-0.18-0.84-0.32-1.44-0.93c-0.95-2.01-0.77-2.56,1.14-3.57c0.09-0.05,0.2-0.07,0.79-0.07c1.82-0.38,3.35-1.3,4.51-2.72
			c1.27-1.56,2.46-3.2,2.61-5.34c0.03-0.44,0.17-0.88,0.27-1.31c0.33-1.44,0.25-2.87-0.02-4.32c-0.44-2.43-1.38-4.72-2.04-7.08
			c-0.36-1.26-0.58-1.56-2.21-1.46c-0.56,0.04-1.11,0.05-1.88-0.05c0,0-0.23-0.1-0.31-0.59c-0.64-1.16-1.48-2.23-1.61-3.62
			c-0.01-0.09-0.12-0.19-0.2-0.26c-0.08-0.07-0.18-0.11-0.28-0.16c-0.23-0.14-0.45-0.11-0.56,0.16c-0.65,1.65-1.28,3.3-1.9,4.95
			c-0.04,0.09,0.01,0.22-0.23,0.73c-2.34,3.62-4.03,7.55-5.48,11.59c-0.82,2.3-0.8,4.65-0.46,7.02c0.24,1.67,1.06,2.96,2.6,3.72
			c0.5,0.25,1.02,0.48,1.53,0.71c0.66,0.31,1.05,0.82,1.18,1.54c0.08,0.44,0.15,0.89,0.09,1.93c-0.15,2.68-0.18,5.37-0.77,8.02
			c-1.62,7.35-4.99,13.63-10.95,18.39c-0.52,0.41-0.96,0.92-1.87,1.53c-0.81,0.61-1.62,1.2-2.42,1.82
			c-7.67,5.91-15.76,11.17-24.47,15.43c-0.4,0.19-0.75,0.48-1.61,0.84c-4.51,2.07-9.13,3.87-13.82,5.5
			c-6.94,2.42-13.58,5.51-20.06,8.94c-2.4,1.27-4.67,2.74-6.86,4.34c-0.34,0.25-0.55,0.68-0.8,1.04c0,0-0.01-0.01-0.4-0.01
			c-0.12,0.21-0.24,0.42-0.27,0.62c0,0-0.1-0.01-0.56,0.02c-1.1,0.96-2.25,1.87-3.3,2.88c-1.79,1.72-3.46,3.54-4.74,5.69
			c-0.16,0.27-0.19,0.63-0.26,1.01c0,0-0.01-0.07-0.38-0.01C206.5,184.85,206.43,185.07,206.32,185.3z M338.57,267.69
			c0.88-0.95,1.26-2.13,1.42-3.38c0.45-3.52-0.25-6.75-2.61-9.5c-1.25-1.46-2.53-2.89-3.84-4.29c-3.73-3.97-7-8.28-9.8-12.95
			c-0.52-0.87-1.03-1.76-1.6-2.6c-1.26-1.87-2.52-3.75-3.86-5.57c-1.99-2.7-4.58-4.67-7.67-5.97c-1.25-0.52-2.52-1.03-3.82-1.38
			c-2.07-0.55-4.17-1.01-6.27-1.42c-6.66-1.3-13.21-3-19.6-5.29c-4.48-1.61-8.79-3.57-12.96-5.85c-0.68-0.37-1.29-0.95-2.27-0.82
			c-1.28,1.79-2.27,3.82-2.88,5.99c-0.67,2.39-1.24,4.82-1.65,7.26c-0.8,4.72-0.48,9.45,0.21,14.24c0.57,0.51,1.15,1.04,1.75,1.54
			c1.79,1.47,3.82,2.33,6.12,2.7c2.13,0.35,4.26,0.51,6.41,0.52c3.97,0,7.89-0.53,11.82-0.92c4.17-0.42,8.34-0.58,12.52-0.39
			c2.95,0.13,5.81,0.76,8.6,1.77c4.37,1.58,7.89,4.34,10.98,7.72c1.83,2,3.52,4.13,5.04,6.38c1.39,2.06,2.79,4.11,4.21,6.16
			c1.03,1.49,2.22,2.86,3.56,4.08c1.01,0.92,2.15,1.65,3.42,2.17C336.55,268.17,337.33,268.26,338.57,267.69z M195.44,356.43
			c0.47-1.02,1.02-2.03,0.59-3.34c-0.5-0.06-1.05-0.17-1.6-0.19c-2.27-0.09-4.49-0.47-6.69-1.01c-0.33-0.08-0.66-0.17-0.99-0.24
			c-1.02-0.2-1.48-0.22-1.76,0.91c-0.03,0.11-0.06,0.22-0.08,0.33c-0.36,1.51-1.45,2.21-2.84,2.59c-0.33,0.09-0.67,0.13-1,0.15
			c-2.6,0.15-2.2,0.03-3.29,2.58c-1.27,2.98-1.59,6.09-1.43,9.29c0.09,1.83,0.49,3.57,1.15,5.27c0.75,1.9,1.71,3.69,2.85,5.38
			c1.2,1.78,2.43,3.54,3.68,5.29c3.09,4.34,5.79,8.9,7.77,13.86c0.25,0.63,0.54,1.24,0.84,1.85c0.15,0.3,0.34,0.59,0.54,0.85
			c0.62,0.82,2.32,0.97,3.06,0.27c0.32-0.31,0.65-0.64,0.9-1.01c1.11-1.63,1.66-3.44,1.67-5.42c0.03-5.15-0.88-10.11-3.06-14.81
			c-0.52-1.13-1.12-2.22-1.63-3.35c-0.75-1.66-1.75-3.16-2.89-4.57c-0.57-0.7-1.15-1.4-1.65-2.15c-1.03-1.54-0.97-2.93,0.11-4.39
			c0.2-0.27,0.41-0.55,0.65-0.78C192.38,361.8,193.86,359.4,195.44,356.43z M114.79,349.51c-1.17-0.32-2.34-0.64-3.5-0.95
			c-0.21-0.06-0.44-0.14-0.64-0.1c-0.15,0.04-0.29,0.24-0.38,0.4c-0.04,0.06,0.02,0.24,0.08,0.31c1.39,1.3,3.45,1.61,5.03,0.78
			C115.33,349.85,115.28,349.76,114.79,349.51z"/>
		<path class="st2" d="M290.32,104.54c0.82,0.49,1.42,0.85,1.77,1.38c0.62,0.93,1.24,1.77,2.26,2.33c0.81,0.44,1.17,1.34,1.33,2.2
			c0.09,0.48-0.23,1.04-0.71,1.84c-1.7,0.28-3.05,0.3-4.41,0.3c-24.27,0-48.55,0-72.82,0c-3.95,0-7.9-0.01-11.85,0.01
			c-0.9,0-1.8,0.06-2.7,0.11c-0.41,0.02-0.89,0.47-0.91,0.86c-0.06,1.12-0.13,2.25-0.13,3.38c-0.01,20.32,0,40.65-0.01,60.97
			c0,1.35-0.11,2.7-0.16,4.05c-0.13,0.3-0.37,0.6-0.37,0.9c-0.01,0.92-0.34,1.73-0.75,2.53c-0.71,1.39-1.39,2.78-2.09,4.17
			c-0.59,1.19-1.28,2.33-1.37,3.72c-0.03,0.42-0.27,0.84-0.46,1.24c-0.43,0.9-0.79,1.82-0.92,2.83c-0.09,0.66-0.69,0.78-1.52,0.85
			c-0.3-1.23-0.4-2.47-0.4-3.71c-0.01-26.35,0-52.71-0.01-79.06c0-2.26-0.07-4.52-0.07-6.78c0-2.27,1.45-3.88,3.68-4.1
			c0.79-0.08,1.58-0.07,2.37-0.07C230.05,104.47,260.02,104.48,290.32,104.54z"/>
		<path class="st3" d="M172.08,359.71c0.23-1.31,0.62-2.55,0.5-3.93c-0.07-0.79,0.5-1.04,1.38-0.74c0.26,0.09,0.41,0.24,0.34,0.49
			c-0.39,1.26-0.8,2.52-1.34,3.95C172.65,359.69,172.48,359.73,172.08,359.71z"/>
		<path class="st4" d="M201.97,401.46c0.21-1.87,0.43-3.43,0.73-4.98c0.54-2.79,0.39-5.64-0.09-8.44c-0.35-2.02-0.52-4.03-0.52-6.07
			c0.01-8.71,0-17.42,0.01-26.13c0-0.79,0.04-1.58,0.08-2.37c0.02-0.43,0.42-0.89,0.8-0.98c0.22-0.06,0.44-0.13,0.66-0.16
			c2.65-0.33,5.02-1.42,7.1-3.01c2.97-2.26,5.91-4.55,8.59-7.16c2.12-2.07,3.84-4.45,5.49-6.88c0.3-0.44,0.46-1.03,0.53-1.57
			c0.15-1.18-0.92-2.26-2.06-2.15c-1.11,0.1-2.18,0.64-3.33,0.28c-0.26-0.08-0.36-0.24-0.28-0.52c0.03-0.11,0.05-0.23,0.11-0.31
			c2.27-3.01,3.73-6.45,5.33-9.82c0.48-1.02,1.03-2.01,1.59-2.98c0.28-0.49,0.67-0.91,1-1.37c0.99-1.42,2.31-1.9,4.06-1.95
			c4.24-0.12,8.32,0.6,12.35,1.84c3.47,1.07,6.81,2.42,10.04,4.07c3.22,1.64,6.46,3.27,9.71,4.85c1.52,0.74,3.1,1.36,4.67,2.02
			c1.91,0.81,3.92,1.09,5.98,0.98c1.24-0.07,2.5-0.09,3.71-0.34c4.9-1.02,9.85-1.36,14.84-1.08c1.12,0.06,2.25,0.18,3.36,0.36
			c2.13,0.34,4.27,0.42,6.43,0.34c1.15-0.05,2.26-0.28,3.26-0.83c3.1-1.69,3.94-3.95,3.17-7.06c-0.44-1.8-1.43-3.33-2.63-4.7
			c-1.56-1.79-3.18-3.53-5.24-4.78c-1.73-1.06-3.4-2.24-5.16-3.25c-3.17-1.81-6.58-2.97-10.23-3.37c-0.22-0.02-0.43-0.13-0.81-0.4
			c1.19-0.19,2.54-0.16,3.89-0.16c18.31,0,36.63,0,54.94-0.01c3.01,0,3.29-0.03,3.28,3.17c-0.02,6.11,0,12.21,0,18.32
			c0,50.76,0,101.52,0,152.29c0,1.92,0.03,3.85-0.32,5.75c-0.09,0.49-0.65,1.04-1.15,1.11c-0.45,0.06-0.89,0.13-1.34,0.14
			c-1.13,0.02-2.26,0.02-3.39,0.02c-18.43,0-36.85,0-55.28,0c-26.34,0-52.68,0-79.02-0.01c-1.24,0-2.48-0.06-3.72-0.11
			c-0.4-0.02-0.86-0.48-0.88-0.88c-0.05-1.24-0.12-2.48-0.12-3.72c-0.01-17.41,0-34.82,0-52.23c0-7.35,0-14.7,0-22.05
			C202.08,404.03,202.05,402.9,201.97,401.46z M264.74,407.02c0.01,0.26,0.02,0.52-0.39,1.01c-1.7,1.12-3.43,2.19-5.1,3.36
			c-5.14,3.59-9.64,7.87-13.31,12.96c-3.56,4.93-5.47,10.33-4.43,16.55c0.7,4.19,2.46,7.7,5.72,10.46c1.6,1.35,3.4,2.32,5.43,2.62
			c4.02,0.59,7.89,0.11,11.41-2.16c2.12-1.37,3.86-3.14,5.34-5.15c1.54-2.1,2.82-4.37,3.93-6.73c1.3-2.76,2.5-5.57,3.77-8.35
			c3.26-7.13,7.32-13.77,12.26-19.86c0.89-1.1,1.92-1.89,3.28-2.27c0.45-0.12,0.97,0.04,1.12,0.48c0.26,0.75,0.52,1.49,1.04,2.11
			c1.99,2.41,5.56,1.4,6.47-0.87c0.25-0.63,0.45-1.28,0.69-1.92c0.12-0.33,0.58-0.44,0.79-0.19c0.44,0.52,0.87,1.04,1.29,1.57
			c3.2,4.07,7.2,7.15,11.73,9.59c1.03,0.55,2.1,0.8,3.26,0.74c1.49-0.08,2.6-0.8,3.27-2.08c0.36-0.69,0.64-1.48,0.71-2.24
			c0.31-3.85,0.43-7.69-1.01-11.38c-0.16-0.41-0.26-0.86-0.31-1.3c-0.02-0.19,0.09-0.5,0.24-0.58c0.69-0.37,1.4-0.71,2.13-1
			c3.11-1.24,5.64-3.27,7.99-5.61c2-1.98,2.04-5.35,0.11-7.33c-2.48-2.54-5.23-4.65-8.59-5.91c-0.53-0.2-1.05-0.41-1.53-0.69
			c-0.28-0.16-0.48-0.49-0.38-0.86c0.11-0.44,0.26-0.86,0.37-1.3c0.34-1.31,0.8-2.61,0.97-3.94c0.33-2.47,0.22-4.97-0.02-7.45
			c-0.05-0.55-0.24-1.1-0.46-1.62c-0.68-1.61-1.92-2.44-3.67-2.56c-1.3-0.09-2.45,0.33-3.54,0.97c-4.4,2.61-8.52,5.57-11.58,9.78
			c-0.39,0.53-0.74,1.15-1.56,1.32c-0.4-0.91-0.74-1.87-1.24-2.74c-0.66-1.16-1.73-1.75-3.07-1.81c-1.5-0.07-2.62,0.63-3.4,1.85
			c-0.41,0.65-0.68,1.4-1.03,2.14c-1.51,0.02-2.69-0.58-3.59-1.68c-1.22-1.49-2.42-2.99-3.55-4.54c-4.09-5.6-7.37-11.65-10.18-17.97
			c-1.42-3.2-3.02-6.32-4.55-9.48c-0.84-1.74-1.98-3.3-3.2-4.78c-3.44-4.16-7.83-6.36-13.3-6.32c-3.09,0.02-5.75,1.13-8.07,3.07
			c-4.54,3.81-6.03,8.95-5.79,14.58c0.17,4.12,1.61,7.96,4.03,11.37c0.85,1.2,1.74,2.37,2.69,3.49c4.51,5.3,9.75,9.74,15.76,13.26
			c0.97,0.57,1.92,1.19,2.87,1.81c0.12,0.08,0.14,0.31,0.21,0.48c-0.22,0.03-0.44,0.11-0.65,0.07c-0.33-0.06-0.64-0.21-0.96-0.31
			c-3.57-1.08-7.12-2.23-10.71-3.23c-6.24-1.74-12.58-2.77-19.09-2.42c-3.51,0.19-6.97,0.71-10.27,1.99
			c-6.2,2.4-10.58,8.5-10.82,15.12c-0.06,1.58,0,3.17,0.05,4.75c0.02,0.67,0.08,1.37,0.27,2.01c1.9,6.39,5.71,10.94,12.31,12.84
			c5.76,1.65,11.62,1.65,17.49,1.01c3.71-0.4,7.35-1.24,10.93-2.3C258.49,408.5,261.62,407.57,264.74,407.02z"/>
		<path class="st5" d="M267.69,295.57c-1.53-0.43-2.78-0.33-4.02-0.36c-2.03-0.04-4.07,0.14-6.16-0.12
			c-1.47-1.18-2.94-2.42-4.48-3.57c-1.63-1.22-3.32-2.35-4.98-3.52c-0.55-0.39-1.12-0.76-1.65-1.18c-0.61-0.48-0.75-1.26-0.26-1.79
			c1.29-1.41,2.2-3.14,3.79-4.31c0.79-0.58,1.4-1.47,1.97-2.31c3.52-5.15,6.53-10.55,8.25-16.61c1.08-3.81,1.97-7.64,2.6-11.54
			c0.31-1.9,0.49-3.8,0.66-5.71c0.05-0.59,0.63-0.98,1.21-0.84c0.77,0.19,1.53,0.38,2.29,0.59c2.54,0.68,5.13,0.78,7.74,0.75
			c2.15-0.02,4.31,0.08,6.44-0.14c3.03-0.31,6.06-0.66,9.11-0.77c2.67-0.7,5.4-0.54,8.1-0.43c3.62,0.16,7.18,0.85,10.51,2.35
			c1.65,0.75,3.15,1.77,4.51,2.99c0.84,0.75,1.72,1.46,2.56,2.21c0.34,0.3,0.66,0.62,0.94,0.97c1.9,2.38,3.76,4.8,5.44,7.35
			c1.18,1.79,2.4,3.55,3.66,5.29c1.4,1.94,3.13,3.57,4.94,5.12c1.77,1.51,3.92,2.38,6.2,2.48c2.08,0.1,4.02-0.74,5.29-2.54
			c1.05-1.49,1.78-3.15,1.79-5.04c0-1.36,0.06-2.71,0.03-4.07c-0.08-3.3-1.32-6.17-3.45-8.63c-2-2.3-4.02-4.59-6.07-6.84
			c-2.66-2.92-5.03-6.1-7.01-9.54c-1.98-3.43-4.16-6.72-6.62-9.82c-1.06-1.34-2.28-2.48-3.62-3.54c-3.46-2.74-7.52-4.1-11.69-5.16
			c-2.29-0.58-4.63-0.98-6.96-1.41c-6.35-1.19-12.47-3.18-18.51-5.39c-3.73-1.36-7.2-3.26-10.68-5.14c-0.56-0.3-0.59-0.97-0.1-1.41
			c0.17-0.15,0.31-0.34,0.49-0.46c1.33-0.85,2.63-1.76,4.02-2.51c2.98-1.63,6.11-2.96,9.3-4.1c5.36-1.92,10.26-4.73,15-7.81
			c2.93-1.9,5.67-4.1,8.5-6.17c1.64-1.2,3.26-2.43,4.93-3.58c0.93-0.64,1.93-1.16,2.91-1.73c2.5-1.47,5.13-1.42,7.87-0.87
			c3.15,0.63,5.48,2.57,7.79,4.55c1.2,1.03,2.24,2.24,3.35,3.37c0.56,0.56,1.15,1.1,1.67,1.69c1.52,1.72,3.48,2.03,5.58,1.67
			c1.37-0.23,2.53-0.92,3.29-2.18c1.25-2.06,2.19-4.21,2.06-6.7c-0.03-0.56,0-1.13,0-1.7c0.04-5.52-1.81-10.41-5.05-14.81
			c-1.57-2.13-3.76-3.57-6.02-4.87c-3.56-2.03-7.43-3.28-11.36-4.37c-0.22-0.06-0.45-0.06-0.66-0.13c-3.59-1.19-7.3-1.34-11.05-1.35
			c-2.92-0.01-5.55,0.93-8.18,1.97c-1.05,0.42-2.06,0.94-3.06,1.46c-4.96,2.55-10.2,4.31-15.66,5.32c-2.21,0.41-4.42,0.94-6.7,0.96
			c-0.78,0.01-1.56,0.22-2.34,0.35c-1.56,0.26-3.13,0.45-4.7,0.17c-0.06-0.01-0.11-0.16-0.13-0.26c-0.02-0.1-0.04-0.26,0.02-0.31
			c0.23-0.24,0.46-0.51,0.76-0.66c2.86-1.38,5.48-3.17,8.13-4.89c2.74-1.78,5.4-3.71,7.83-5.92c0.92-0.84,1.89-1.61,2.81-2.44
			c0.67-0.6,1.35-1.21,1.96-1.88c5.09-5.54,9.22-11.71,12.13-18.66c1.4-3.34,2.41-6.81,3.16-10.36c0.26-1.21,0.45-2.44,0.69-3.94
			c11.44-0.28,22.85-0.28,34.27-0.27c1.01,0,2.03,0.07,3.04,0.15c0.45,0.03,1.07,0.68,1.14,1.13c0.07,0.44,0.14,0.89,0.15,1.34
			c0.02,1.13,0.01,2.26,0.01,3.39c0,57.18,0,114.37,0,171.55c0,1.24-0.03,2.48-0.09,3.73c-0.03,0.67-0.66,1.28-1.34,1.3
			c-1.13,0.05-2.26,0.07-3.39,0.07c-17.74,0-35.48,0-53.22,0c-1.69,0-3.39-0.07-5.07,0.28c-0.65,0.14-1.35,0.09-2.03,0.09
			C277.5,295.61,272.76,295.6,267.69,295.57z"/>
		<path class="st4" d="M281.38,303.39c0.16,0.1,0.03,0.32-0.15,0.39c-0.31,0.12-0.65,0.2-0.98,0.2c-2.03-0.01-3.99,0.46-5.95,0.92
			c-0.65,0.16-1.3,0.34-1.96,0.44c-1.66,0.25-3.09-0.2-4.29-1.73C272.33,303.4,276.7,303.42,281.38,303.39z"/>
		<path class="st6" d="M187.28,346.84c-0.91,0.13-1.8,0.07-2.66-0.31c-0.52-0.23-1.05-0.43-1.57-0.65
			c-0.88-0.38-1.77-0.49-2.55,0.18c-0.99,0.84-1.68,1.86-1.33,3.25c0.13,0.54,0.37,1.05,0.53,1.58c0.07,0.24-0.09,0.46-0.36,0.47
			c-0.67,0.02-1.35,0.06-2.01-0.05c-3.12-0.53-6.22-1.16-9.26-2.06c-0.57-0.17-1.1-0.14-1.63,0.14c-1.18,0.62-1.19,2.14-0.72,2.97
			c0.38,0.68,0.98,1.24,1.41,1.9c0.24,0.36,0.37,0.81,0.51,1.23c0.11,0.36-0.36,0.95-0.75,0.98c-0.22,0.02-0.46,0.08-0.66,0.03
			c-0.54-0.14-1.11-0.27-1.6-0.53c-1.9-1-3.81-1.99-5.65-3.08c-2.61-1.54-2.34-1.26-1.35-3.92c0.67-1.81,0.9-3.73,1.09-5.64
			c0.05-0.54-0.05-1.14-0.22-1.66c-0.19-0.56-0.28-1.07-0.01-1.62c0.43-0.87,0.34-1.75,0.01-2.63c-0.28-0.74-0.52-1.49-0.84-2.21
			c-0.34-0.77-0.96-1.24-2.07-1.68c-0.01-3.19-0.58-5.91-1.48-8.59c-0.42-1.25-1.19-2.21-2.23-2.85c-1.42-0.87-2.89-1.75-4.71-2
			c-0.13-1.25-0.72-1.89-1.6-2.25c-0.73-0.29-1.5-0.47-2.25-0.69c-2.53-0.73-2.65-1.34-1.73-3.63c0.04-0.1,0.09-0.21,0.12-0.32
			c0.85-3-0.68-4.85-3.84-4.55c-1.22,0.12-2.44,0.38-3.63,0.71c-1.62,0.45-3.21,1.01-4.81,1.56c-3.61,1.25-7.17,2.64-10.86,3.64
			c-0.54,0.15-1.06,0.37-1.57,0.6c-0.79,0.36-1.26,1.36-0.99,2.28c0.15,0.52,0.49,0.99,0.77,1.66c0.02,0.41,0.02,0.64,0.02,0.88
			c-1.11,0.43-1.97,1.05-2.18,2.34c-0.19,1.18-0.88,2.04-1.91,2.66c-0.48,0.29-0.92,0.66-1.3,1.06c-0.67,0.71-0.88,1.56-0.58,2.51
			c0.14,0.43,0.31,0.85,0.51,1.26c0.86,1.7,0.77,3.25-0.64,4.65c-0.39,0.39-0.68,0.89-0.96,1.38c-0.3,0.53-0.27,1.1,0.05,1.61
			c0.3,0.47,0.66,0.91,1.03,1.33c1.36,1.52,2.58,3.15,3.65,4.88c0.16,0.26,0.16,0.64,0.17,0.97c0.01,0.22-0.73,0.37-1.22,0.26
			c-0.22-0.05-0.45-0.08-0.66-0.14c-3.84-1.05-6.95-3.2-9.45-6.26c-0.35-0.43-0.58-0.96-0.8-1.47c-0.28-0.62-0.42-1.3-0.75-1.88
			c-0.34-0.62-0.95-0.99-1.67-1.01c-0.72-0.01-1.29,0.36-1.69,0.96c-0.12,0.19-0.19,0.41-0.29,0.61c-0.22,0.47-0.09,1.31-0.78,1.27
			c-0.47-0.02-0.96-0.53-1.35-0.92c-1.64-1.6-2.81-3.53-3.75-5.6c-1.46-3.21-2.45-6.55-2.79-10.08c-0.18-1.91-0.56-3.8-0.37-5.74
			c0.07-0.71-0.37-1.31-1.06-1.59c-0.66-0.27-1.38-0.26-1.94,0.17c-0.7,0.55-1.31,1.23-1.96,1.84c-0.07,0.07-0.28,0.12-0.31,0.08
			c-0.13-0.14-0.27-0.32-0.31-0.5c-0.04-0.21-0.02-0.45,0.03-0.67c1.01-4.69,2.68-9.1,5.56-12.98c0.68-0.91,1.35-1.81,1.87-3.26
			c0.85-0.65,1.43-0.96,1.96-1.35c2.39-1.78,4.95-2.38,7.82-1.28c0.5,0.19,1.08,0.18,1.63,0.54c-0.05,0.72-0.08,1.17-0.17,1.6
			c-0.1,0.55-0.29,1.08-0.37,1.64c-0.62,4.48,0.87,8.38,3.32,12.01c0.06,0.09,0.15,0.16,0.23,0.24c0.75,0.73,2.53,0.88,3.15-0.47
			c0.19-0.4,0.31-0.84,0.69-1.25c1.45,0.07,2.25-0.69,3.32-1.38c1.47,0.42,2.41,0.07,3.07-1.02c0.06-0.09,0.14-0.17,0.44-0.26
			c1.47,0.15,2.39-0.3,3.19-1.44c2.39,0.48,4.36,0.08,6.01-1.28c0.77-0.63,1.46-0.87,2.42-0.84c0.93,0.03,1.65-0.65,2.39-1.16
			c2.81-1.97,5.91-3.26,9.23-4.05c2.63-0.63,5.27-1.19,7.98-1.42c0.89-0.07,1.77-0.32,2.63-0.57c0.73-0.21,1.29-1.11,1.25-1.83
			c-0.04-0.88-0.78-1.77-1.64-1.91c-0.44-0.07-0.9-0.13-1.34-0.08c-3.24,0.42-6.48,0.85-9.66,1.64c-3.2,0.79-6.22,1.97-9.08,3.6
			c-0.68,0.39-1.39,0.74-2.27,0.88c-0.33-0.36-0.48-0.49-0.58-0.91c0.55-2.01,0.32-3.74,0.35-5.58c0.79-1.17,1.46-2.19,1.89-3.31
			c0.32-0.84,0.74-1.58,1.28-2.28c0.19-0.25,0.24-0.6,0.57-1.01c0.51-0.25,0.88-0.35,1.11-0.57c1.57-1.55,3.56-2.36,5.53-3.22
			c1.14-0.5,2.29-0.98,3.35-1.62c0.7-0.42,1.36-0.67,2.19-0.72c0.77-0.05,1.52-0.37,2.28-0.58c1.41-0.41,2.8-0.88,4.23-1.24
			c1.31-0.33,2.48,0.07,3.36,1.09c0.43,0.5,0.81,1.09,1.07,1.7c0.31,0.72,0.47,1.5,0.71,2.3c0.67,0.41,1.38,0.77,2.01,1.24
			c0.96,0.72,1.59,1.58,1.04,2.9c-0.42,1.01-0.16,2,0.26,2.95c0.29,0.66,0.79,1.11,1.51,1.22c0.44,0.07,0.9,0.06,1.35,0.08
			c4.95,0.26,8.55,2.61,10.76,7.05c0.55,1.11,0.99,2.28,1.49,3.42c0.23,0.51,0.44,1.04,0.71,1.53c0.4,0.73,1.53,1.05,2.4,0.73
			c0.7-0.26,1.27-1.11,1.19-1.88c-0.06-0.56-0.13-1.13-0.33-1.65c-0.53-1.37-1.09-2.73-1.72-4.05c-1.82-3.85-4.72-6.57-8.67-8.17
			c-0.71-0.29-1.41-0.61-2.06-0.88c-0.09-1.06,0.78-1.45,1.1-2.15c0.32-0.72,0.63-1.45,1.22-2.19c1.06-0.11,1.87-0.1,2.6-0.33
			c1.09-0.35,2.19-0.41,3.31-0.44c1.23-0.03,2.46,0.01,3.69-0.05c1.75-0.09,3.28,0.49,4.75,1.37c0.69,0.41,1.2,0.97,1.6,1.67
			c0.4,0.7,0.57,1.45,0.37,2.2c-1.27-0.24-2.27-0.45-3.26-0.65c-0.22-0.05-0.44-0.09-0.67-0.12c-0.98-0.11-2.11,0.66-2.35,1.57
			c-0.2,0.77,0.36,1.85,1.18,2.22c0.51,0.23,1.04,0.42,1.58,0.58c0.97,0.29,1.95,0.55,2.84,1.04c-0.41,0.8-0.73,1.4-1.09,1.97
			c-0.23,0.38-0.59,0.71-0.41,1.2c0.2,0.55,0.72,0.47,1.15,0.48c1.58,0.03,3.17-0.12,4.65,0.65c1.14-0.64,2.15-1.43,3.65-1.18
			c0.61,1.07,0.15,1.97,0.3,2.86c0.19,1.13,1.6,2.2,2.82,1.32c0.53-0.38,0.93-0.95,1.55-1.28c0.36,0.59,0.36,1.04,0.19,1.47
			c-0.91,2.34-2.2,4.45-3.97,6.25c-1.27,1.29-2.58,2.53-3.86,3.81c-0.32,0.32-0.6,0.67-0.87,1.03c-0.06,0.07-0.07,0.26-0.02,0.31
			c0.13,0.14,0.33,0.37,0.45,0.34c1.55-0.34,3.1-0.53,4.69-0.54c0.56,0,1.12-0.12,1.67-0.26c1.31-0.33,2.46,0.12,3.52,0.78
			c0.79,0.49,1.27,1.26,1.37,2.23c0.15,1.5,0.03,2.94-0.78,4.25c-0.89,1.44-1.78,2.88-2.7,4.3c-0.31,0.48-0.62,0.94-0.84,1.68
			c-1.46,1.43-2.82,2.59-4.41,3.5c-1.26,0.72-2.41,1.66-3.56,2.56c-0.68,0.53-0.82,1.32-0.65,2.15c0.16,0.76,0.78,1.24,1.74,1.34
			c0.33,0.03,0.68-0.04,1.05,0.17c0.06,0.54,0.09,0.85-0.09,1.29c-3.06,1.51-6.02,2.55-9.11,3.25c-0.88,0.2-1.74,0.47-2.59,0.76
			c-1.04,0.35-1.66,1.48-1.37,2.39c0.33,1.04,1.21,1.61,2.34,1.51c0.34-0.03,0.68-0.05,1-0.14c1.85-0.5,3.71-0.95,5.53-1.55
			c1.92-0.63,3.8-1.4,5.66-1.84c-0.2,0.68-0.29,1.14-0.53,1.49c-0.44,0.62-0.98,1.18-1.45,1.73
			C187.36,343.53,187.32,345.18,187.28,346.84z"/>
		<path class="st7" d="M279.65,193.49c-0.37,0.23-0.73,0.51-1.13,0.68c-2.7,1.16-5.39,2.32-8,3.68c-2.04,1.06-3.81,2.42-5.29,4.16
			c-4.36,5.11-7.09,10.95-8.07,17.63c-0.78,5.3-0.73,10.58-0.18,15.89c0.36,3.48,0.58,6.98,0.8,10.48c0.12,1.92-0.02,3.82-0.37,5.73
			c-0.71,3.9-1.62,7.74-2.85,11.5c-1.1,3.35-2.57,6.51-4.63,9.39c-2.44,3.4-5.11,6.62-7.99,9.66c-0.38,0.4-0.81,0.76-1.28,1.2
			c-0.57-0.24-1.08-0.43-1.58-0.66c-2.46-1.14-4.92-2.28-7.37-3.42c-2.25-1.05-4.52-2.06-6.74-3.18c-0.9-0.45-1.67-1.14-2.51-1.71
			c-0.63-0.43-1.66-0.38-2.23,0.09c-0.64,0.53-0.93,1.42-0.71,2.12c0.21,0.66,0.47,1.3,1.05,1.7c0.93,0.64,1.85,1.32,2.85,1.8
			c2.54,1.22,5.12,2.39,7.72,3.49c4.91,2.07,9.54,4.65,14.04,7.48c3.45,2.17,6.65,4.68,9.67,7.43c1.59,1.44,3.27,2.78,4.89,4.19
			c1.02,0.89,2.01,1.82,2.82,2.98c-1.31,0.34-2.42,0.38-3.48-0.08c-0.3-0.13-0.64-0.23-0.97-0.23c-1.55,0.01-3.12-0.28-4.64,0.21
			c-1.05,0.99-2.11,1.97-3.13,2.99c-0.4,0.4-0.54,0.96-0.56,1.54c-0.04,1.22-0.08,2.45-0.12,3.67c-0.43-0.1-0.88-0.17-1.3-0.32
			c-3.5-1.22-7.08-2.13-10.69-2.9c-0.65-0.14-1.3-0.34-1.99-0.52c-0.16-0.28-0.4-0.54-0.47-0.83c-0.25-1.1-0.89-1.73-1.99-2.03
			c-0.69-0.19-0.7-0.63-0.1-1.17c0.17-0.15,0.36-0.27,0.52-0.42c1.36-1.22,0.75-3.29-1.03-3.56c-0.22-0.03-0.45-0.05-0.94-0.33
			c-0.52-1.13-1.11-1.74-1.81-2.26c-0.43-0.32-0.85-0.64-1.28-0.96c0.49-0.61,1.03-1.19,1.47-1.84c1.37-2,0.17-3.91-1.24-4.56
			c-1.01-0.46-2.11-0.82-3.21-0.99c-1.78-0.27-3.58-0.37-5.38-0.5c-1.23-0.09-2.47-0.12-3.71-0.21c-0.18-0.01-0.36-0.2-0.53-0.32
			c-0.21-0.14-0.16-0.58,0.12-0.91c0.36-0.43,0.76-0.83,1.1-1.28c1.38-1.85,1.3-3.77,0.14-5.68c-0.71-1.17-1.59-2.17-2.73-2.95
			c-2.22-1.54-4.41-3.12-6.93-4.17c-0.74-0.31-0.91-0.78-0.41-1.66c0.06-0.1,0.11-0.2,0.61-0.48c1.34-0.19,2.25-0.1,3.13-0.22
			c1.44-0.2,2.86-0.52,4-1.53c1.51-1.34,2.37-2.96,2.19-5.04c-0.02-0.22-0.02-0.45,0-0.67c0.1-1.55-0.44-2.88-1.48-3.98
			c-1.15-1.22-2.29-2.43-3.76-3.32c-1.05-0.64-2.1-1.28-3.18-1.86c-0.51-0.27-0.87-0.7-0.98-1.4c0.63-0.46,1.11-0.76,1.61-1.01
			c3.36-1.67,6.32-3.89,8.99-6.49c1.09-1.06,2.17-1.91,3.76-2c0.54-0.03,1.08-0.31,1.6-0.53c0.41-0.17,0.84-0.35,1.17-0.64
			c1.2-1.04,2.32-2.15,2.92-3.67c0.29-0.73,0.6-1.45,0.89-2.19c1.08-2.72,2.26-5.32,4.16-7.65c1.9-2.34,3.37-5.04,5.01-7.6
			c1.22-1.9,2.18-3.95,3.38-5.85c1.38-2.2,2.38-4.61,3.91-6.71c2.16-4.34,4.52-8.59,6.21-13.14c0.98-2.63,2.12-5.19,2.74-7.97
			c0.5-2.26,0.45-4.49,0.26-6.72c-0.19-2.29-3.48-5.45-5.72-5.64c-1.68-0.15-3.37-0.22-4.99,0.49c-0.71,0.31-1.5,0.46-2.26,0.67
			c-0.35,0.1-1-0.32-1.05-0.66c-0.02-0.11-0.06-0.22-0.07-0.33c-0.12-3.83-0.51-3.94,2.61-6.37c0.6-0.47,0.74-1.09,0.83-1.77
			c0.22-0.06,0.43-0.16,0.65-0.18c3.49-0.24,6.99-0.43,10.49-0.72c4.28-0.35,8.55-0.75,12.82-1.19c4.38-0.46,8.76-0.98,13.13-1.5
			c1.46-0.17,2.9-0.44,4.6-0.4c-0.47,1.54-1.18,2.82-1.9,4.09c-0.4,0.71-0.53,1.47-0.53,2.28c0.01,1.13,0,2.26,0,3.39
			c0,0.71-0.24,1.34-0.74,1.83c-0.57,0.54-1.13,1.11-1.78,1.55c-1.12,0.75-2.29,1.43-3.46,2.1c-1.59,0.93-2.87,2.22-3.87,3.72
			c-0.71,1.07-0.25,2.43-0.33,3.65c-0.01,0.22,0.01,0.45,0.01,0.68c-0.01,0.71,0.25,1.31,0.72,1.84c1.24,1.41,2.67,2.43,4.65,2.39
			C278.81,192.78,279.31,192.98,279.65,193.49z"/>
		<path class="st8" d="M228.37,298.69c0.63,0.23,1.06,0.55,1.48,0.87c0.7,0.52,1.29,1.13,1.57,2.23c-0.9,0.61-1.84,1-2.78,1.37
			c-2.2,0.88-4.39,1.76-6.59,2.65c-0.42,0.17-0.82,0.39-1.19,0.63c-0.72,0.48-1.01,1.19-0.94,2.04c0.07,0.81,0.63,1.52,1.44,1.69
			c1.1,0.23,2.22,0.39,3.33,0.54c0.66,0.09,1.34,0.08,2.01,0.12c-0.04,0.31,0.02,0.59-0.1,0.69c-1.98,1.89-3.6,4.04-4.78,6.51
			c-0.73,1.52-1.4,3.08-2.1,4.62c-1.46,3.22-3.22,6.22-6.28,8.22c-0.28,0.18-0.52,0.43-0.77,0.66c-0.6,0.54-0.94,1.25-1.24,1.99
			c-0.61,1.54,0.81,2.98,1.83,3.09c1.23,0.13,2.47,0.13,3.71,0.19c0.25,0.01,0.39,0.18,0.39,0.45c0,0.1-0.04,0.21-0.08,0.31
			c-0.04,0.1-0.1,0.21-0.17,0.29c-3.28,3.45-6.85,6.54-11.03,8.88c-1.81,1.01-3.67,1.66-5.79,1.6c-2.48-0.08-4.97-0.02-7.45-0.01
			c-1.83,0.01-3.59-0.27-5.43-1.25c-0.11-1.88-0.07-3.54-0.03-5.28c0.47-0.55,1.01-1.11,1.45-1.73c0.25-0.35,0.33-0.8,0.69-1.62
			c3.73-2.04,6.74-4.39,9.51-7.08c0.32-0.31,0.58-0.69,0.82-1.07c0.46-0.7,0.05-1.95-0.76-2.31c-0.3-0.13-0.64-0.26-0.97-0.26
			c-0.68,0-1.35,0.09-1.96-0.1c0.39-0.69,0.77-1.11,1.02-1.59c0.7-1.34-0.06-2.83-1.52-2.99c-0.55-0.06-1.11-0.02-1.66-0.02
			c0.05-0.58,0.36-1.05,0.67-1.53c0.92-1.42,1.8-2.86,2.7-4.3c0.82-1.31,0.94-2.75,0.78-4.25c-0.1-0.97-0.58-1.74-1.37-2.23
			c-1.06-0.65-2.21-1.11-3.52-0.78c-0.54,0.14-1.11,0.25-1.67,0.26c-1.59,0.01-3.14,0.2-4.69,0.54c-0.12,0.03-0.33-0.2-0.45-0.34
			c-0.05-0.06-0.03-0.24,0.02-0.31c0.28-0.35,0.55-0.71,0.87-1.03c1.28-1.28,2.59-2.52,3.86-3.81c1.77-1.8,3.06-3.9,3.97-6.25
			c0.17-0.43,0.17-0.88-0.21-1.72c0.56-2.43-0.06-4.1-1.46-5.61c-1.42-1.52-3.2-2.43-5.11-3.11c-1.68-0.6-3.39-1.12-5.09-1.67
			c-0.09-0.78-0.26-1.53-0.66-2.23c-0.4-0.7-0.91-1.25-1.6-1.67c-1.47-0.87-3-1.45-4.75-1.37c-1.23,0.06-2.46,0.02-3.69,0.05
			c-1.12,0.03-2.22,0.09-3.31,0.44c-0.73,0.24-1.54,0.22-2.66,0.08c-0.54-2.05-1.77-2.98-3.29-3.6c-0.72-0.29-1.53-0.36-2.27-0.61
			c-0.28-0.1-0.57-0.39-0.69-0.67c-0.17-0.4-0.2-0.87-0.28-1.31c-0.26-1.45-1.11-2.41-2.43-3.02c-1.04-0.48-2.1-0.73-3.26-0.74
			c-3.89-0.03-7.56,1.02-11.15,2.37c-0.83,0.31-1.51,1.02-2.34,1.31c-0.94,0.33-1.97,0.36-2.95,0.57c-0.44,0.09-0.86,0.26-1.27,0.46
			c-2.83,1.38-5.66,2.77-8.49,4.16c-0.2,0.1-0.38,0.24-0.55,0.39c-0.63,0.59-0.86,1.31-0.63,2.14c0.19,0.71,0.64,1.2,1.36,1.35
			c0.66,0.14,1.33,0.18,2,0.27c-0.11,0.31-0.17,0.66-0.36,0.91c-0.54,0.7-0.96,1.44-1.28,2.28c-0.43,1.12-1.1,2.14-2.08,3.2
			c-0.71-0.34-1.02-0.66-1.32-1.01c-1.74-2.01-3.99-2.8-6.59-2.86c-2.15-0.05-4.28,0.04-6.33,0.75c-3.54,1.23-6.91,2.73-9.07,6.04
			c-0.25,0.38-0.61,0.65-1.08,0.73c-0.54-0.08-1.12-0.07-1.62-0.26c-2.87-1.1-5.43-0.49-7.82,1.28c-0.53,0.39-1.11,0.71-1.88,1.12
			c-1-0.76-1.92-1.38-3.04-1.67c-0.27-0.07-0.37-0.62-0.19-0.88c0.32-0.46,0.64-0.93,0.98-1.37c2.18-2.79,3.8-5.87,4.78-9.28
			c0.78-2.72,1.78-5.36,2.84-7.97c0.73-1.79,1.69-3.44,2.82-5.01c0.57-0.79,1.28-1.25,2.28-1.2c0.11,0.01,0.23,0,0.34,0.01
			c2.87,0.18,3.09-0.1,5.03-2.09c0.47-0.48,0.97-0.96,1.35-1.52c1.05-1.53,2.61-2.48,4.03-3.58c0.35-0.27,0.79-0.44,1.21-0.61
			c1-0.4,2-0.39,2.94,0.17c0.77,0.46,1.49,1.02,2.26,1.48c1.12,0.67,2.27,0.87,3.56,0.4c1.28-0.46,2.51-1,3.67-1.71
			c2.22-1.35,4.53-2.53,6.97-3.47c1.31-0.5,2.59-0.81,3.93-0.13c0.1,0.05,0.22,0.06,0.32,0.09c1.1,0.3,2.02-0.02,2.75-0.85
			c0.9-1.01,1.75-2.07,2.65-3.08c0.9-1.01,1.83-1.99,2.78-2.96c0.23-0.24,0.56-0.37,0.85-0.55c0.45-0.28,0.93-0.14,1.04,0.34
			c0.05,0.22,0.06,0.45,0.1,0.67c0.19,1.25,0.97,2.05,2.11,2.42c1.17,0.39,2.37,0.75,3.63,0.78c1.58,0.04,3.15,0.03,4.7,0.49
			c0.73,0.22,1.57,0.03,2.36,0.09c2.5,0.17,4.91,0.69,7.15,1.89c0.71,0.38,1.36,0.8,1.76,1.53c0.16,0.3,0.34,0.59,0.54,0.86
			c0.83,1.1,1.65,1.4,2.95,1.02c3.26-0.93,6.65-1.2,9.97-1.83c0.54-0.1,1.11-0.01,1.66-0.01c0.26,0.32,0.52,0.55,0.67,0.84
			c0.79,1.51,1.98,2.39,3.68,2.67c0.99,0.17,1.97,0.51,2.9,0.91c1.08,0.46,1.68,0.85,0.7,2.24c-1.01,1.42-0.83,2.89,0.26,4
			c0.68,0.7,1.53,1.12,2.45,0.75c2.4-0.98,4.66-0.29,6.94,0.38c0.28,0.08,0.48,0.59,0.32,0.84c-0.47,0.76-0.99,1.5-1.42,2.29
			c-0.57,1.08-0.18,2.29,0.92,2.89c0.39,0.21,0.82,0.4,1.25,0.48c2.97,0.53,5.54,1.91,7.92,3.68c0.81,0.6,1.5,1.36,2.16,2.12
			c0.61,0.71,0.39,1.93-0.4,2.38c-1.18,0.67-2.4,1.26-3.6,1.89c-0.5,0.26-1.02,0.49-1.48,0.81c-0.91,0.61-1.06,1.79-0.36,2.67
			c0.21,0.26,0.43,0.54,0.71,0.71c1.87,1.1,3.88,1.77,6.04,2.09c3.25,0.49,6.51,0.66,9.79,0.71c0.19,0,0.38,0.17,0.56,0.27
			c0.21,0.11,0.09,0.62-0.21,0.89c-0.33,0.3-0.65,0.63-1.02,0.9c-0.63,0.47-1.33,0.86-1.93,1.37c-0.51,0.43-0.96,0.95-1.35,1.5
			c-0.57,0.79,0.02,2.19,0.99,2.48c0.67,0.2,1.36,0.21,2-0.05c0.62-0.25,1.24-0.57,1.78-0.97
			C225.68,300.73,226.91,299.75,228.37,298.69z M125.11,273.24c-0.85,0.73-1.71,1.44-2.55,2.18c-0.25,0.22-0.47,0.49-0.65,0.76
			c-0.4,0.6-0.49,1.24-0.14,1.9c0.35,0.65,0.93,0.95,1.65,0.97c0.22,0.01,0.46,0.01,0.66-0.06c1.64-0.57,2.93-1.62,3.94-3
			c0.73-1,0.11-2.63-1.14-2.97C126.48,272.9,126.01,273.01,125.11,273.24z"/>
		<path class="st9" d="M202.24,181.91c-0.2-1.32-0.09-2.67-0.09-4.02c0.01-20.32,0-40.65,0.01-60.97c0-1.13,0.07-2.25,0.13-3.38
			c0.02-0.39,0.49-0.83,0.91-0.86c0.9-0.05,1.8-0.11,2.7-0.11c3.95-0.01,7.9-0.01,11.85-0.01c24.27,0,48.55,0,72.82,0
			c1.35,0,2.71-0.02,4.38-0.08c0.74,3-0.35,5.76-1.45,8.46c-1.03,2.5-2.31,4.88-4.05,7.01c-1.08,1.33-2.29,2.44-3.6,3.53
			c-3.98,3.33-8.21,6.34-12.45,9.32c-3.5,2.46-7.2,4.65-10.99,6.65c-2.49,1.32-5.01,2.6-7.56,3.79c-2.25,1.04-4.54,2-6.86,2.87
			c-4.75,1.79-9.56,3.41-14.2,5.47c-5.36,2.38-10.67,4.86-15.68,7.95c-4.85,2.99-8.94,6.84-12.74,11.04
			c-0.53,0.58-0.92,1.28-1.43,1.88C203.5,180.98,202.98,181.41,202.24,181.91z"/>
		<path class="st10" d="M243.47,169.2c0.21,0.73,0.07,1.35-0.53,1.82c-3.12,2.43-2.73,2.53-2.61,6.37c0,0.11,0.05,0.22,0.07,0.33
			c0.05,0.34,0.7,0.76,1.05,0.66c0.76-0.21,1.54-0.36,2.26-0.67c1.62-0.71,3.31-0.63,4.99-0.49c2.23,0.2,5.53,3.35,5.72,5.64
			c0.19,2.23,0.24,4.46-0.26,6.72c-0.62,2.78-1.76,5.34-2.74,7.97c-1.7,4.55-4.05,8.8-6.21,13.14c-1.53,2.1-2.52,4.51-3.91,6.71
			c-1.19,1.9-2.16,3.95-3.38,5.85c-1.64,2.56-3.11,5.26-5.01,7.6c-1.89,2.33-3.08,4.94-4.16,7.65c-0.29,0.73-0.6,1.45-0.89,2.19
			c-0.6,1.52-1.72,2.63-2.92,3.67c-0.33,0.28-0.76,0.47-1.17,0.64c-0.52,0.22-1.06,0.5-1.6,0.53c-1.59,0.09-2.67,0.93-3.76,2
			c-2.67,2.6-5.63,4.83-8.99,6.49c-0.5,0.25-0.98,0.55-1.87,1.05c-1.65,0.64-2.91,1.08-4.17,1.49c-0.73,0.24-1.48,0.61-2.22,0.63
			c-1.58,0.04-3.04,0.61-4.53,0.97c-1.2,0.29-2.39,0.42-3.59,0.59c-0.72,0.13-1.32-0.24-1.9-0.56c-0.28-0.15-0.5-0.43-0.67-0.71
			c-0.18-0.28-0.24-0.63-0.37-0.94c-0.33-0.79-0.97-1.25-1.77-1.43c-0.54-0.13-1.12-0.2-1.67-0.17c-3.26,0.18-6.54,0.35-9.72,1.14
			c-1.32,0.33-2.35,0.11-3.45-0.71c-1.33-1-2.83-1.79-4.27-2.67c0.04-0.15,0.04-0.46,0.17-0.54c1.06-0.64,2.15-1.22,3.21-1.86
			c6.01-3.62,11.61-7.78,16.62-12.72c1.55-1.53,2.7-3.31,4.07-5.21c0.53,0.33,0.73,0.64,0.76,0.95c0.07,0.78,0.04,1.58,0.07,2.37
			c0.16,3.56,3.27,6.31,6.83,5.93c2.04-0.22,3.61-1.39,4.5-3.18c0.54-1.08,0.96-2.28,0.9-3.57c-0.06-1.24,0.04-2.49-0.04-3.72
			c-0.13-1.99-1.04-3.68-2.4-5.08c-0.79-0.82-1.85-1.29-3.02-1.36c-0.68-0.04-1.35-0.05-2-0.31c0.34-1.41,1.34-2.04,2.12-2.84
			c1.46-1.49,1.56-2.02,0.27-3.75c-0.83-1.12-1.09-2.42-1.08-3.84c0.01-1.6,0.11-3.16,0.74-4.64c0.5-1.19,0.74-2.34,0.12-3.58
			c-0.19-0.37-0.12-0.89-0.14-1.34c-0.08-2.07,0.49-4.02,1.24-5.9c0.41-1.05,1-2.03,1.75-3c0.7,0.34,1.21,0.58,1.61,0.95
			c0.81,0.75,1.08,1.57,0.26,2.65c-0.2,0.27-0.41,0.53-0.58,0.82c-0.6,0.97-0.96,2-0.9,3.17c0.04,0.67-0.03,1.35,0.05,2.01
			c0.05,0.43,0.16,0.92,0.43,1.23c0.72,0.84,1.47,1.71,2.35,2.37c1.3,0.98,2.79,1.36,4.43,0.81c1.27-0.43,2.55-0.81,3.45-1.93
			c0.2-0.25,0.55-0.37,1.07-0.52c1.33,0.29,2.06,1.01,2.38,2.01c0.38,1.2,0.88,2.3,1.65,3.3c0.93,1.21,1.33,2.59,1.18,4.13
			c-0.02,0.22-0.01,0.45,0,0.68c0.04,0.93-0.22,1.73-0.74,2.53c-0.73,1.13-1.26,2.39-1.87,3.59c-0.25,2.04-1.06,3.9-1.87,5.76
			c-0.07,0.16,0.04,0.43,0.13,0.61c0.12,0.24,0.66,0.25,0.9,0.03c1.42-1.28,2.86-2.54,3.82-4.26c0.54-0.98,1.3-1.84,1.91-2.78
			c2.74-4.26,5.72-8.37,7.93-12.96c1.2-1.37,1.66-3.16,2.6-4.69c1.29-2.1,2.25-4.42,3.31-6.67c0.12-0.25-0.03-0.64-0.11-0.96
			c-0.07-0.26-0.57-0.38-0.89-0.23c-0.62,0.28-1.25,0.53-1.83,0.87c-1.22,0.71-2.51,0.96-3.9,0.87c-0.45-0.03-0.9-0.03-1.35,0
			c-1.19,0.07-2.22-0.39-3.16-1.03c-0.56-0.38-1-0.93-1.56-1.29c-0.36-0.23-0.84-0.27-1.17-0.6c1.19-1.78,2.21-3.4,3.38-4.92
			c1.92-2.5,3.62-5.15,5.52-7.66c0.2-0.27,0.37-0.56,0.53-0.86c1.77-3.43,1.84-3.38-0.31-7.14c-0.83-1.45-2.28-2.17-3.96-2.26
			c-0.77-0.04-1.61,0-2.33,0.25c-1.14,0.4-2.16,0.38-3.28-0.05c-1.09-0.41-2.21-0.31-3.28,0.24c-0.5,0.26-1,0.56-1.54,0.69
			c-0.53,0.14-1.1,0.1-1.66,0.13c0.27-0.35,0.47-0.77,0.81-1.02c2.19-1.6,4.46-3.07,6.86-4.34c6.48-3.44,13.12-6.52,20.06-8.94
			c4.68-1.63,9.31-3.44,14.08-5.28c0.47,2.16-0.32,3.69-1.69,4.97c-0.4,0.38-0.86,0.69-1.3,1.03c-1.06,0.81-2.13,1.59-3.16,2.43
			c-0.22,0.18-0.25,0.59-0.36,0.9c-2.19,0.5-4.43,0.53-6.66,0.67c-1.9,0.12-3.8,0.13-5.7,0.18c-0.68,0.02-1.32,0.14-1.92,0.51
			c-0.65,0.4-1.04,1.22-0.89,2.01c0.14,0.71,0.52,1.26,1.22,1.46c0.53,0.16,1.09,0.26,1.64,0.27
			C240.71,169.25,241.94,169.18,243.47,169.2z"/>
		<path class="st11" d="M338.34,267.83c-1.01,0.43-1.79,0.34-2.54,0.03c-1.27-0.52-2.41-1.25-3.42-2.17
			c-1.35-1.22-2.53-2.58-3.56-4.08c-1.41-2.05-2.82-4.1-4.21-6.16c-1.52-2.25-3.2-4.38-5.04-6.38c-3.09-3.38-6.62-6.14-10.98-7.72
			c-2.78-1.01-5.65-1.64-8.6-1.77c-4.18-0.19-8.35-0.03-12.52,0.39c-3.93,0.4-7.86,0.93-11.82,0.92c-2.15,0-4.28-0.16-6.41-0.52
			c-2.29-0.38-4.33-1.24-6.12-2.7c-0.61-0.5-1.18-1.04-1.75-1.54c-0.7-4.79-1.01-9.52-0.21-14.24c0.41-2.44,0.98-4.87,1.65-7.26
			c0.61-2.17,1.61-4.2,2.88-5.99c0.99-0.13,1.6,0.45,2.27,0.82c4.17,2.28,8.48,4.24,12.96,5.85c6.39,2.29,12.94,3.99,19.6,5.29
			c2.1,0.41,4.2,0.87,6.27,1.42c1.3,0.35,2.57,0.85,3.82,1.38c3.09,1.3,5.68,3.27,7.67,5.97c1.34,1.82,2.59,3.7,3.86,5.57
			c0.57,0.84,1.07,1.73,1.6,2.6c2.8,4.67,6.07,8.98,9.8,12.95c1.31,1.4,2.59,2.84,3.84,4.29c2.36,2.75,3.06,5.98,2.61,9.5
			C339.83,265.55,339.45,266.73,338.34,267.83z"/>
		<path class="st12" d="M279.9,193.48c-0.59-0.49-1.09-0.7-1.69-0.69c-1.98,0.03-3.41-0.99-4.65-2.39
			c-0.47-0.53-0.72-1.13-0.72-1.84c0-0.23-0.02-0.45-0.01-0.68c0.08-1.23-0.38-2.59,0.33-3.65c1-1.5,2.27-2.79,3.87-3.72
			c1.17-0.68,2.34-1.35,3.46-2.1c0.65-0.44,1.21-1,1.78-1.55c0.51-0.49,0.75-1.11,0.74-1.83c0-1.13,0.01-2.26,0-3.39
			c-0.01-0.8,0.12-1.57,0.53-2.28c0.72-1.27,1.43-2.54,2.18-4.05c1.23-0.54,2.43-0.87,3.64-1.15c4.31-1.02,8.4-2.65,12.41-4.49
			c1.23-0.56,2.47-1.12,3.7-1.69c4.14-1.92,8.44-2.32,12.91-1.44c1.89,0.37,3.76,0.78,5.83,1.75c0.37,0.94,0.75,1.36,1.12,1.78
			c1.88,2.12,4.23,3.7,6.43,5.44c1.67,1.32,3.4,2.57,5.21,3.71c1.33,0.84,2.44,1.99,3.18,3.44c0.66,1.28,0.76,2.58,0.16,3.9
			c-0.24,0.51-0.52,1-0.74,1.52c-0.41,1-1.12,1.68-2.12,2.05c-0.52,0.19-1.07,0.32-1.61,0.48c-0.9-0.84-1.8-1.69-2.71-2.53
			c-2.61-2.39-5.53-4.26-8.94-5.32c-1.73-0.54-3.51-0.84-5.62-1.23c-1.06-1.69-1.51-2.06-2.59-1.62c-1.08,0.44-2.23,0.31-3.3,0.63
			c-4.51,1.35-9.16,2.08-13.71,3.27c-0.76,0.2-1.49,0.49-2.23,0.75c-0.47,0.17-0.72,0.54-0.76,1.01c-0.05,0.78-0.04,1.57-0.08,2.36
			c-0.02,0.45,0.01,0.93-0.15,1.33c-0.58,1.46-1.17,2.91-2.29,4.09c-2.49,2.62-5.18,4.97-8.35,6.73c-0.57,0.31-0.69,0.84-0.71,1.42
			C283.15,192.52,281.57,192.82,279.9,193.48z"/>
		<path class="st13" d="M215.81,207.02c-0.28,0.18-0.63,0.3-0.83,0.55c-0.89,1.12-2.17,1.5-3.45,1.93
			c-1.63,0.55-3.13,0.17-4.43-0.81c-0.88-0.66-1.62-1.53-2.35-2.37c-0.27-0.31-0.38-0.81-0.43-1.23c-0.08-0.66-0.01-1.34-0.05-2.01
			c-0.07-1.17,0.3-2.2,0.9-3.17c0.18-0.28,0.38-0.55,0.58-0.82c0.83-1.09,0.55-1.9-0.26-2.65c-0.4-0.37-0.91-0.61-1.62-1.22
			c-0.28-1.1-0.31-1.89-0.35-2.68c-0.02-0.48-0.27-0.84-0.62-1.15c0.33-1.95,1.44-3.51,2.87-5.28c0.5-0.36,0.57-0.55,0.55-0.77
			c0,0-0.01-0.03,0.17-0.09c0.27-0.27,0.36-0.48,0.44-0.69c0,0,0.01,0.07,0.24,0.06c0.62-0.21,1.09-0.33,1.4-0.62
			c2.55-2.36,4.94-4.87,6.96-7.7c0.28-0.39,0.27-0.84,0.18-1.29c0,0,0.1,0.01,0.24,0c0.27-0.21,0.39-0.41,0.52-0.61
			c0,0,0.01,0.01,0,0c0.55-0.05,1.12-0.01,1.65-0.14c0.54-0.14,1.04-0.43,1.54-0.69c1.06-0.55,2.19-0.65,3.28-0.24
			c1.12,0.43,2.15,0.44,3.28,0.05c0.72-0.25,1.55-0.29,2.33-0.25c1.67,0.09,3.13,0.81,3.96,2.26c2.15,3.76,2.08,3.71,0.31,7.14
			c-0.15,0.3-0.33,0.6-0.53,0.86c-1.9,2.51-3.61,5.16-5.52,7.66c-1.16,1.52-2.19,3.14-3.56,5.05c-2.5,3.46-4.65,6.62-6.98,9.66
			C215.98,206.09,215.94,206.59,215.81,207.02z"/>
		<path class="st14" d="M195.32,356.67c-1.46,2.74-2.94,5.13-4.99,7.13c-0.24,0.23-0.45,0.51-0.65,0.78
			c-1.09,1.46-1.14,2.85-0.11,4.39c0.5,0.75,1.09,1.44,1.65,2.15c1.14,1.41,2.14,2.91,2.89,4.57c0.51,1.13,1.11,2.22,1.63,3.35
			c2.18,4.69,3.09,9.66,3.06,14.81c-0.01,1.98-0.57,3.79-1.67,5.42c-0.25,0.37-0.57,0.7-0.9,1.01c-0.74,0.71-2.44,0.55-3.06-0.27
			c-0.2-0.27-0.39-0.55-0.54-0.85c-0.3-0.61-0.58-1.22-0.84-1.85c-1.98-4.96-4.68-9.52-7.77-13.86c-1.25-1.75-2.47-3.51-3.68-5.29
			c-1.14-1.69-2.1-3.48-2.85-5.38c-0.67-1.69-1.06-3.44-1.15-5.27c-0.16-3.2,0.16-6.32,1.43-9.29c1.09-2.55,0.69-2.43,3.29-2.58
			c0.34-0.02,0.68-0.07,1-0.15c1.39-0.37,2.49-1.07,2.84-2.59c0.03-0.11,0.06-0.22,0.08-0.33c0.28-1.13,0.75-1.11,1.76-0.91
			c0.33,0.06,0.66,0.16,0.99,0.24c2.2,0.54,4.42,0.92,6.69,1.01c0.55,0.02,1.1,0.13,1.6,0.19
			C196.46,354.4,195.91,355.41,195.32,356.67z"/>
		<path class="st15" d="M249.84,314.04c-0.14-1.36-0.1-2.59-0.06-3.81c0.02-0.57,0.15-1.13,0.56-1.54c1.02-1.02,2.09-2,3.13-2.99
			c1.53-0.49,3.09-0.2,4.64-0.21c0.32,0,0.67,0.1,0.97,0.23c1.07,0.45,2.17,0.42,3.6,0.28c0.79,0.24,1.34,0.45,1.72,0.84
			c1.8,1.83,4.07,2.67,6.5,3.21c1.44,0.32,2.78,0.33,4.25-0.15c1.67-0.54,3.5-0.6,5.59-0.62c0.58,0.66,0.97,0.8,1.41,0.95
			c1.47,0.5,2.99,0.89,4.33,1.69c1.31,0.78,2.62,1.21,4.07,0.4c1-0.06,2-0.1,2.99-0.17c0.48-0.04,0.79-0.35,1.06-0.72
			c0.4,0.16,0.84,0.27,1.2,0.5c2.42,1.53,4.72,3.22,6.85,5.69c0.16,1.88-0.29,3.12-1.13,4.22c-0.41,0.54-0.86,1.03-0.91,1.75
			c-1.02,0.19-2.02-0.03-3.02-0.18c-3.23-0.5-6.46-0.98-9.75-1.02c-1.36-0.01-2.69,0.09-4.02,0.37c-2.54,0.52-5.1,0.93-7.96,1.1
			c-0.46-0.71-0.58-1.14-0.76-1.55c-0.29-0.64-0.74-1.03-1.47-1.24c-1.94-0.56-3.95-0.77-5.91-1.25c-1.07-0.26-2.18-0.45-3.27-0.7
			c-0.67-0.16-1.35-0.06-1.8,0.59c-0.11-0.02-0.23-0.02-0.33-0.07C258.32,317.6,254.08,316.08,249.84,314.04z"/>
		<path class="st16" d="M147.23,320.3c1.77,0.01,3.24,0.9,4.66,1.77c1.04,0.64,1.82,1.6,2.23,2.85c0.9,2.69,1.46,5.4,1.22,8.54
			c-1.33,0.92-1.78,1.99-1.38,3.35c0.38,1.29,0.88,2.54,1.34,3.86c-0.19,0.57-0.45,1.2-0.61,1.84c-0.16,0.65-0.26,1.33-0.33,2
			c-0.24,2.29-1.1,4.36-2.24,6.32c-0.16,0.27-0.42,0.61-0.68,0.66c-1.49,0.26-2.03,1.26-2.22,2.6c-0.02,0.11-0.02,0.27-0.09,0.32
			c-0.26,0.19-0.54,0.48-0.81,0.47c-1.11-0.01-1.93-0.54-2.44-1.72c0.46-0.78,0.96-1.65,1.48-2.51c1.12-1.86,1.79-3.86,2.19-5.99
			c0.49-2.63,0.03-5.16-0.5-7.7c-0.09-0.42-0.37-0.83-0.66-1.16c-0.49-0.53-1.14-0.68-1.85-0.51c-0.64,0.15-1.29,0.78-1.34,1.37
			c-0.05,0.56-0.06,1.12-0.03,1.68c0.07,1.24,0.2,2.47,0.27,3.71c0.16,3.08-0.92,5.74-2.78,8.13c-0.48,0.62-1.04,1.19-1.56,1.78
			c-0.66,0.75-0.79,1.59-0.37,2.5c0.14,0.3,0.26,0.61,0.4,0.94c-0.96,0.98-2.28,0.93-3.72,0.96c-0.29-2.72-0.28-5.09-0.09-7.67
			c0.66-1.41,0.38-2.67,0.46-3.9c0.06-0.9-0.1-1.87,0.17-2.69c0.51-1.55,0.46-3.11,0.49-4.69c0.05-2.47-0.18-4.97,0.63-7.38
			c0.14-0.41,0.01-0.91,0.09-1.35c0.4-2.12,0.93-4.18,2.5-5.81c0.38-0.39,0.62-0.93,1.19-1.38c0.94,0.09,1.6,0.2,2.27,0.24
			c0.58,0.03,1.1-0.19,1.49-0.64C146.83,320.84,147.02,320.57,147.23,320.3z"/>
		<path class="st17" d="M137.13,348.91c0,2.37-0.01,4.74,0.01,7.45c-0.31,0.42-0.63,0.56-0.95,0.58c-0.16,0.01-0.36-0.18-0.5-0.32
			c-0.07-0.06-0.1-0.22-0.07-0.32c0.38-1.39,0.01-2.43-1.34-3.08c-0.43-0.21-0.6-0.64-0.56-1.14c0.02-0.22,0.02-0.46-0.01-0.68
			c-0.16-1.06-0.76-1.72-1.67-1.86c-1.02-0.16-1.93,0.42-2.31,1.56c-0.32,0.96-0.56,1.95-0.85,2.93c-0.22,0.75-0.48,1.5-0.73,2.31
			c-0.4-0.13-0.77-0.15-0.99-0.34c-1.44-1.28-2.72-2.71-3.66-4.84c-0.19-0.57-0.34-0.74-0.48-0.91c0,0-0.21-0.23-0.19-0.67
			c0.03-1.23,0.05-2.02-0.34-2.75c-0.59-1.1-0.9-2.28-1.16-3.5c-0.37-1.75-0.98-3.46-1.47-5.18c-0.6-2.11-0.73-4.22,0.3-6.24
			c0.53-1.04,0.69-2.12,0.66-3.27c-0.02-1.01-0.08-2.04,0.02-3.04c0.17-1.81,0.61-3.52,2-4.87c1.68-1.64,1.71-1.7,4.16-1.7
			c3.2,0.01,2.79-0.24,5.25,2.3c0.4,0.41,0.65,0.9,0.76,1.48c0.12,0.66,0.3,1.31,0.49,1.95c0.17,0.57,0.15,1.11-0.09,1.64
			c-0.24,0.55-0.16,1.07,0.02,1.63c0.13,0.41,0.07,0.88-0.17,1.3c-0.82-0.05-1.41-0.18-1.94-0.08c-3.22,0.63-5.01,3.99-2.84,6.99
			c0.32,0.43,0.81,0.78,1.29,1.05c1,0.57,2.13,0.71,3.26,1.08c0.03,0.71-0.02,1.17,0.1,1.59c0.7,2.43,1.72,4.77,2.18,7.28
			c0.06,0.31,0.28,0.6,0.44,0.89C136.05,348.67,136.57,348.83,137.13,348.91z"/>
		<path class="st18" d="M252.08,164.2c-0.17-0.36-0.15-0.77,0.07-0.95c1.02-0.85,2.1-1.63,3.16-2.43c0.44-0.34,0.9-0.65,1.3-1.03
			c1.37-1.28,2.16-2.81,1.93-5.03c0.35-0.53,0.71-0.82,1.1-1.01c8.71-4.26,16.79-9.52,24.47-15.43c0.8-0.62,1.62-1.21,2.86-1.78
			c0.7,0.25,0.97,0.45,1.23,0.67c0.97,0.82,1.67,1.78,1.73,3.12c0.02,0.49,0.44,0.75,0.83,0.97c-0.51,1.03-1.37,1.78-2.17,2.57
			c-3.04,3.03-6.39,5.69-9.94,8.09c-5.33,3.59-10.99,6.63-16.7,9.55c-0.4,0.2-0.8,0.41-1.21,0.61
			C256.91,164.03,256.91,164.03,252.08,164.2z"/>
		<path class="st19" d="M133.52,329.35c-0.03-0.44,0.03-0.91-0.09-1.32c-0.17-0.56-0.26-1.08-0.02-1.63
			c0.24-0.53,0.26-1.08,0.09-1.64c-0.2-0.64-0.37-1.3-0.49-1.95c-0.11-0.58-0.36-1.06-0.76-1.48c-2.46-2.54-2.05-2.29-5.25-2.3
			c-2.45-0.01-2.48,0.06-4.16,1.7c-1.39,1.35-1.83,3.06-2,4.87c-0.09,1.01-0.04,2.03-0.02,3.04c0.03,1.14-0.13,2.22-0.66,3.27
			c-1.03,2.02-0.9,4.13-0.3,6.24c0.49,1.73,1.1,3.43,1.47,5.18c0.26,1.23,0.57,2.4,1.16,3.5c0.39,0.73,0.37,1.52,0.33,2.6
			c-0.23,0.03-0.51-0.2-0.64-0.49c-1.99-4.31-4.3-8.43-7.24-11.92c-0.22-0.67-0.01-1.06,0.21-1.46c1.08-1.99,1.18-4.07,0.54-6.22
			c-0.09-0.31-0.09-0.65-0.14-1.02c0.47-0.49,0.96-0.96,1.39-1.46c1.06-1.23,1.68-2.67,1.8-4.28c0.08-1.11-0.34-1.98-1.7-2.51
			c-0.24-0.35-0.24-0.59,0.01-0.98c0.92-0.22,1.61-0.2,2.25-0.35c0.88-0.2,1.72-0.52,2.59-0.77c3.56-1.06,7.04-2.37,10.54-3.62
			c1.27-0.45,2.59-0.76,3.88-1.13c0.28-0.08,0.63,0.32,0.58,0.64c-0.09,0.55-0.26,1.1-0.29,1.65c-0.06,1.29,0.36,2.44,1.28,3.37
			c0.64,0.65,1.38,1.16,2.22,1.52c0.82,0.35,1.63,0.72,2.45,1.09c-0.3,0.47-0.54,1-0.92,1.4c-1.57,1.63-2.09,3.69-2.5,5.81
			c-0.08,0.44,0.05,0.93-0.09,1.35c-0.81,2.42-0.58,4.91-0.63,7.38c-0.03,1.58,0.02,3.14-0.49,4.69c-0.27,0.82-0.11,1.79-0.17,2.69
			c-0.08,1.23,0.2,2.49-0.46,3.9c-0.75,0.12-1.27-0.03-1.56-0.58c-0.16-0.29-0.38-0.58-0.44-0.89c-0.47-2.51-1.48-4.85-2.18-7.28
			c-0.12-0.41-0.07-0.88,0.1-1.71c0.78-0.74,1.43-1,1.92-1.44c1.37-1.23,1.64-3.04,0.75-4.59c-0.45-0.77-0.97-1.5-1.56-2.42
			c-0.33-0.28-0.55-0.4-0.77-0.49C133.57,329.33,133.52,329.35,133.52,329.35z"/>
		<path class="st15" d="M193.12,258.98c1.11-0.41,2.31-0.54,3.5-0.83c1.49-0.36,2.95-0.93,4.53-0.97c0.75-0.02,1.49-0.39,2.22-0.63
			c1.26-0.41,2.51-0.85,4.02-1.31c0.5,0.48,0.86,0.91,1.37,1.18c1.08,0.58,2.13,1.22,3.18,1.86c1.47,0.9,2.61,2.11,3.76,3.32
			c1.04,1.1,1.58,2.43,1.48,3.98c-0.01,0.22-0.02,0.45,0,0.67c0.18,2.08-0.68,3.7-2.19,5.04c-1.14,1.01-2.56,1.34-4,1.53
			c-0.88,0.12-1.79,0.03-2.98,0.03c-0.31-0.22-0.35-0.45-0.35-0.67c0.02-1.78-0.93-2.94-2.42-3.72c-0.79-0.41-1.64-0.71-2.47-1.04
			c-0.41-0.16-0.88-0.22-1.26-0.44c-0.25-0.15-0.44-0.48-0.57-0.76c-0.08-0.18-0.02-0.44-0.01-0.66c0.06-1.64-0.74-2.8-2.14-3.51
			c-1.09-0.55-2.25-0.99-3.4-1.4C194.57,260.34,193.81,259.91,193.12,258.98z"/>
		<path class="st20" d="M304.03,103.07c-0.1,0.03-0.21,0.06-0.3,0.11c-1.91,1.01-2.09,1.56-1.26,3.89
			c-0.75,0.73-1.46,0.89-2.22,0.88c-0.07-0.44-0.15-0.89-0.22-1.33c-0.12-0.72-0.51-1.23-1.18-1.54c-0.51-0.24-1.03-0.46-1.53-0.71
			c-1.54-0.77-2.36-2.05-2.6-3.72c-0.34-2.37-0.37-4.72,0.46-7.02c1.45-4.04,3.14-7.97,5.86-11.82c1.74-0.51,3.11-0.8,4.48-1.08
			c0,0,0.23,0.1,0.39,0.39c0.28,0.48,0.38,0.69,0.52,0.86c2.21,2.74,1.71,3.4-0.11,6.26c-0.18,0.28-0.44,0.51-0.68,0.75
			c-2.1,2.1-3.08,4.6-2.97,7.6c0.06,1.6,0.14,3.14,1.02,4.53C304.06,101.72,304.09,102.39,304.03,103.07z"/>
		<path class="st13" d="M198.84,224.61c0.68,0.03,1.35,0.04,2.03,0.08c1.18,0.07,2.23,0.54,3.02,1.36c1.36,1.4,2.28,3.09,2.4,5.08
			c0.08,1.24-0.02,2.48,0.04,3.72c0.06,1.29-0.36,2.5-0.9,3.57c-0.89,1.8-2.46,2.97-4.5,3.18c-3.56,0.38-6.67-2.37-6.83-5.93
			c-0.03-0.79-0.01-1.58-0.07-2.37c-0.03-0.32-0.23-0.62-0.58-1.09c0.5-2.22,1.22-4.28,2.3-6.58
			C197.02,225.14,197.93,224.88,198.84,224.61z"/>
		<path class="st3" d="M300.18,108.25c0.82-0.29,1.53-0.45,2.37-0.95c0.62,0.06,1.05,0.2,1.47,0.39c0.56,0.25,0.85,0.71,0.86,1.33
			c0.01,0.22,0,0.45-0.03,0.67c-1.22,11.92-5.64,22.45-13.9,31.49c-0.59-0.12-1-0.37-1.03-0.86c-0.06-1.34-0.77-2.3-1.73-3.12
			c-0.26-0.22-0.52-0.42-1.01-0.73c0.26-0.58,0.7-1.08,1.21-1.5c5.95-4.76,9.33-11.05,10.95-18.39
			C299.93,113.92,299.97,111.23,300.18,108.25z"/>
		<path class="st14" d="M284.67,191.5c-0.23-0.57-0.11-1.1,0.46-1.41c3.17-1.76,5.86-4.11,8.35-6.73c1.12-1.18,1.72-2.62,2.29-4.09
			c0.16-0.4,0.13-0.88,0.15-1.33c0.04-0.79,0.03-1.57,0.08-2.36c0.03-0.47,0.28-0.85,0.76-1.01c0.74-0.26,1.47-0.55,2.23-0.75
			c4.54-1.19,9.2-1.93,13.71-3.27c1.07-0.32,2.21-0.18,3.3-0.63c1.07-0.44,1.53-0.08,2.31,1.56c-0.28,0.38-0.58,0.57-0.9,0.62
			c-2.85,0.45-5.32,1.76-7.64,3.37c-1.94,1.34-3.83,2.75-5.73,4.15c-3.61,2.67-7.18,5.4-11.04,7.71
			C290.39,188.89,287.74,190.37,284.67,191.5z"/>
		<path class="st21" d="M304.27,103.09c-0.18-0.7-0.21-1.37-0.6-1.97c-0.88-1.39-0.96-2.93-1.02-4.53c-0.11-3,0.88-5.5,2.97-7.6
			c0.24-0.24,0.5-0.47,0.68-0.75c1.82-2.87,2.32-3.52,0.11-6.26c-0.14-0.17-0.23-0.38-0.41-0.8c0.5-0.25,1.06-0.27,1.61-0.3
			c1.63-0.11,1.86,0.2,2.21,1.46c0.67,2.36,1.6,4.65,2.04,7.08c0.27,1.45,0.34,2.88,0.02,4.32c-0.1,0.44-0.24,0.87-0.27,1.31
			c-0.15,2.14-1.34,3.77-2.61,5.34C307.87,101.81,306.34,102.73,304.27,103.09z"/>
		<path class="st3" d="M335.94,180.83c0.45-0.37,1-0.5,1.52-0.7c1-0.37,1.71-1.05,2.12-2.05c0.21-0.52,0.5-1.01,0.74-1.52
			c0.61-1.32,0.5-2.61-0.16-3.9c-0.74-1.45-1.85-2.6-3.18-3.44c-1.81-1.14-3.54-2.4-5.21-3.71c-2.2-1.74-4.55-3.31-6.43-5.44
			c-0.38-0.43-0.75-0.84-0.9-1.65c0.2-0.23,0.44-0.29,0.65-0.23c2.7,0.81,5.32,1.83,7.81,3.18c3.96,2.15,6.58,5.36,7.99,9.64
			c0.86,2.61,1.32,5.24,1.17,7.98c-0.07,1.38-0.43,2.66-1.13,3.85c-0.65,1.12-1.58,1.36-2.49,0.55
			C337.6,182.66,336.82,181.84,335.94,180.83z"/>
		<path class="st18" d="M198.87,224.38c-0.94,0.5-1.86,0.76-3.01,1.04c-0.35-1.37,0.19-2.65,0.39-3.98
			c0.8-5.47,1.67-10.93,2.63-16.38c0.8-4.56,1.79-9.08,3.84-13.51c0.53,0.15,0.79,0.51,0.81,1c0.03,0.79,0.06,1.58,0.11,2.64
			c-0.5,1.28-1.08,2.26-1.5,3.31c-0.75,1.89-1.33,3.83-1.24,5.9c0.02,0.45-0.05,0.96,0.14,1.34c0.62,1.24,0.38,2.4-0.12,3.58
			c-0.63,1.48-0.72,3.04-0.74,4.64c-0.01,1.42,0.24,2.72,1.08,3.84c1.29,1.73,1.19,2.26-0.27,3.75
			C200.21,222.33,199.21,222.97,198.87,224.38z"/>
		<path class="st3" d="M262.78,319.9c0.32-0.85,1-0.95,1.68-0.79c1.09,0.26,2.2,0.44,3.27,0.7c1.96,0.48,3.97,0.69,5.91,1.25
			c0.73,0.21,1.19,0.6,1.47,1.24c0.18,0.41,0.3,0.84,0.46,1.55c-1.41,0.78-2.85,0.71-4.24,0.23c-1.58-0.54-3.14-1.15-4.65-1.85
			C265.38,321.61,264.16,320.81,262.78,319.9z"/>
		<path class="st3" d="M294.46,311.22c-0.12,0.57-0.44,0.88-0.92,0.92c-1,0.07-1.99,0.12-2.99,0.17c-1.45,0.81-2.77,0.39-4.07-0.4
			c-1.34-0.8-2.86-1.19-4.33-1.69c-0.43-0.15-0.83-0.29-1.14-0.92C285.6,308.41,290.13,308.6,294.46,311.22z"/>
		<path class="st10" d="M215.49,175.03c0.33,0.43,0.33,0.88,0.05,1.27c-2.02,2.83-4.41,5.34-6.96,7.7c-0.31,0.29-0.78,0.4-1.41,0.58
			c-0.15-0.34-0.12-0.69,0.04-0.96c1.28-2.14,2.95-3.97,4.74-5.69C213.01,176.92,214.16,176,215.49,175.03z"/>
		<path class="st3" d="M300.9,323.66c-0.23-0.8,0.23-1.3,0.64-1.83c0.84-1.1,1.29-2.34,1.22-4.01c1.37,0.63,2.07,1.98,2.53,3.47
			c0.22,0.72-0.21,1.56-0.91,1.93C303.36,323.74,302.28,323.82,300.9,323.66z"/>
		<path class="st21" d="M305.47,80.48c-1.32,0.53-2.69,0.81-4.31,1.12c-0.26-0.08-0.3-0.21-0.27-0.3c0.63-1.65,1.26-3.31,1.9-4.95
			c0.1-0.26,0.33-0.3,0.56-0.16c0.09,0.06,0.2,0.09,0.28,0.16c0.08,0.07,0.19,0.17,0.2,0.26C303.95,78.01,304.79,79.07,305.47,80.48
			z"/>
		<path class="st20" d="M115.01,349.58c0.27,0.17,0.32,0.27,0.37,0.37c-1.58,0.83-3.64,0.51-5.03-0.78
			c-0.07-0.06-0.12-0.24-0.08-0.31c0.09-0.16,0.23-0.36,0.38-0.4c0.2-0.05,0.43,0.04,0.64,0.1
			C112.46,348.87,113.62,349.19,115.01,349.58z"/>
		<path class="st10" d="M206.17,185.37c0.19,0.19,0.11,0.37-0.21,0.58C205.75,185.77,205.82,185.57,206.17,185.37z"/>
		<path class="st19" d="M123,350.43c0.15-0.01,0.29,0.16,0.45,0.5C123.31,350.94,123.15,350.77,123,350.43z"/>
		<path class="st10" d="M206.76,184.59c0.1,0.18,0.01,0.39-0.24,0.66C206.43,185.07,206.5,184.85,206.76,184.59z"/>
		<path class="st10" d="M216.28,174.4c0.07,0.2-0.06,0.4-0.37,0.61C215.84,174.82,215.97,174.61,216.28,174.4z"/>
		<path class="st22" d="M606.98,324.01c-2.08,1.59-4.06,2.89-6.22,3.9c-2.8,1.3-5.71,2.16-8.83,1.99
			c-6.38-0.33-11.52-3.07-15.21-8.26c-2.94-4.13-3.05-8.62-0.87-13.16c1.24-2.58,3.05-4.75,5.2-6.61c1.11-0.96,2.32-1.8,3.46-2.72
			c0.25-0.2,0.43-0.51,0.62-0.78c0.21-0.31,0.14-1.03-0.12-1.26c-0.34-0.29-0.68-0.58-1.04-0.85c-1.56-1.13-3.05-2.34-4.38-3.73
			c-1.5-1.56-2.81-3.26-3.73-5.21c-2.35-4.95-2-9.73,1.47-13.98c4.62-5.66,10.65-8.2,17.99-7.22c1.91,0.25,3.72,0.93,5.46,1.76
			c2.25,1.08,4.32,2.44,6.29,3.96c3.68,2.85,6.97,6.1,10.04,9.57c3.3,3.72,6.55,7.48,9.79,11.25c0.96,1.11,1.84,2.29,2.71,3.47
			c0.93,1.26,0.97,2.22,0.08,3.41c-1.08,1.45-2.19,2.88-3.36,4.25c-2.64,3.09-5.31,6.16-7.99,9.22
			C614.9,316.92,611.3,320.66,606.98,324.01z"/>
		<path class="st23" d="M374.67,438.65c-1.14-0.28-1.58-0.9-1.77-1.72c-0.08-0.33-0.11-0.67-0.11-1.01
			c-0.01-6.44-0.01-12.89,0.01-19.33c0-0.55,0.15-1.11,0.3-1.65c0.2-0.69,1.14-1.31,1.84-1.28c0.74,0.04,1.65,0.69,1.8,1.35
			c0.12,0.55,0.22,1.11,0.25,1.66c0.06,1.13,0.05,2.26,0.09,3.39c0.01,0.44,0.43,0.84,0.87,0.85c2.6,0.05,5.2,0.1,7.8,0.11
			c5.43,0.02,10.85,0.01,16.28,0c0.45,0,0.91-0.01,1.35-0.1c0.18-0.04,0.46-0.29,0.46-0.44c0.04-1.24-0.01-2.48,0.02-3.73
			c0.02-0.98-0.42-1.68-1.07-2.38c-6.89-7.33-13.75-14.68-20.63-22.03c-0.54-0.58-1.09-1.15-1.69-1.67c-0.55-0.48-1.22-0.6-1.9-0.3
			c-0.76,0.34-1.32,0.89-1.37,1.77c-0.05,0.79-0.01,1.58-0.05,2.37c-0.02,0.45-0.08,0.9-0.17,1.34c-0.17,0.85-1.12,1.68-1.93,1.64
			c-0.88-0.05-1.74-0.57-1.94-1.6c-0.11-0.55-0.18-1.12-0.18-1.68c-0.01-6.78-0.01-13.57,0-20.35c0-0.56,0.09-1.12,0.19-1.67
			c0.17-0.85,1.16-1.57,2-1.51c0.78,0.06,1.58,0.66,1.76,1.38c0.13,0.54,0.24,1.1,0.26,1.66c0.04,1.02,0,2.04,0.03,3.05
			c0.07,2.24,0.86,4.15,2.44,5.78c8.18,8.44,16.34,16.91,24.51,25.36c0.39,0.4,0.83,0.76,1.19,1.09c0.72,0.01,1.09-0.43,1.49-0.79
			c4.25-3.9,8.49-7.8,12.73-11.7c5.74-5.28,11.46-10.58,17.21-15.84c1.52-1.39,2.86-2.87,3.76-4.74c0.45-0.94,0.74-1.88,0.73-2.92
			c0-0.9-0.02-1.81,0.05-2.71c0.03-0.44,0.18-0.88,0.35-1.3c0.29-0.71,1.14-1.16,1.94-1.08c0.78,0.08,1.56,0.72,1.68,1.45
			c0.09,0.55,0.17,1.12,0.17,1.68c0.01,7.91,0.01,15.83,0,23.74c0,0.56-0.07,1.13-0.15,1.68c-0.11,0.73-0.88,1.36-1.68,1.44
			c-0.85,0.09-1.69-0.33-1.95-1.03c-0.19-0.52-0.34-1.08-0.38-1.63c-0.07-1.01-0.02-2.03-0.05-3.05c-0.02-0.59-0.23-1.09-0.8-1.38
			c-0.7-0.36-1.32-0.17-1.88,0.27c-0.62,0.49-1.22,1-1.8,1.54c-2.4,2.23-4.79,4.47-7.19,6.71c-5.38,5-10.76,10-16.14,15
			c-0.66,0.62-1.28,1.28-1.98,1.85c-0.97,0.8-1.29,1.81-1.16,3.01c0.03,0.34,0.06,0.67,0.09,1.01c0.04,0.37,0.3,0.62,0.62,0.72
			c0.31,0.1,0.67,0.1,1,0.1c9.38-0.01,18.77-0.03,28.15-0.05c0.11,0,0.23-0.02,0.34-0.02c0.47-0.02,0.89-0.38,0.91-0.8
			c0.04-1.02,0.04-2.03,0.09-3.05c0.03-0.67,0.06-1.36,0.19-2.02c0.18-0.94,1.1-1.55,1.97-1.55c0.71,0,1.56,0.67,1.79,1.36
			c0.11,0.32,0.22,0.65,0.25,0.98c0.05,0.56,0.05,1.13,0.05,1.69c0,5.77,0.01,11.53,0,17.3c0,0.9,0.04,1.79-0.33,2.67
			c-0.4,0.95-1.64,1.47-2.53,1.08c-0.55-0.25-1-0.59-1.12-1.17c-0.15-0.77-0.23-1.56-0.26-2.34c-0.07-1.8-0.09-3.61-0.13-5.41
			c-0.01-0.21-0.47-0.64-0.68-0.66c-0.23-0.02-0.45-0.04-0.68-0.04c-0.79-0.01-1.58-0.01-2.37-0.01c-18.99,0-37.99,0-56.98,0
			c-0.9,0-1.81,0.02-2.71,0.04c-0.41,0.01-0.83,0.46-0.85,0.9c-0.03,0.56-0.05,1.13-0.06,1.69c-0.01,1.13,0.01,2.26-0.01,3.39
			c-0.01,0.56-0.02,1.13-0.08,1.69C376.78,437.86,376.13,438.54,374.67,438.65z"/>
		<path class="st24" d="M445.89,251.81c0,1.92,0.05,3.5-0.01,5.08c-0.09,2.2,0.48,4.24,1.36,6.23c1.57,3.56,3.82,6.65,6.58,9.37
			c2.1,2.07,4.43,3.86,6.98,5.36c2.96,1.74,6.15,2.74,9.55,3.23c7.9,1.15,18.15-0.88,24.71-4.18c2.03-1.02,3.93-2.22,5.64-3.73
			c3.35-2.95,6.01-6.44,8.01-10.42c1.33-2.65,2.04-5.5,2.3-8.45c0.28-3.27,0.44-6.55,0.04-9.82c-0.2-1.68-0.52-3.35-0.89-5
			c-0.17-0.75-0.52-1.5-0.93-2.16c-0.49-0.79-1.21-1.3-2.23-1.3c-3.84,0.02-7.69,0.1-11.53,0c-3.26-0.09-5.69,1.11-7.37,4.25
			c-0.01,1.9,0,4.05-0.02,6.19c-0.01,0.68-0.04,1.36-0.12,2.03c-0.1,0.82-1.07,1.56-1.97,1.56c-0.86,0-1.83-0.76-1.96-1.59
			c-0.07-0.44-0.12-0.9-0.12-1.35c-0.01-7.8-0.01-15.6,0-23.4c0-0.34,0.02-0.68,0.05-1.01c0.11-1.01,1.09-1.96,2.01-1.97
			c0.98-0.01,1.97,0.87,2.05,1.9c0.06,0.79,0.05,1.58,0.08,2.37c0.05,1.64,1.05,2.78,2.62,2.97c0.45,0.05,0.9,0.06,1.35,0.06
			c5.2,0,10.4-0.03,15.6,0.01c1.9,0.02,3.29-0.62,3.99-2.47c0.08-0.2,0.22-0.38,0.4-0.69c0.6-0.02,1.27-0.06,1.93-0.04
			c0.4,0.01,0.93,0.51,0.96,0.83c0.03,0.45,0.07,0.9,0.07,1.35c0,8.71,0.12,17.41-0.04,26.12c-0.11,6.02-1.3,11.88-3.67,17.46
			c-1.75,4.12-4.18,7.75-7.5,10.76c-4.5,4.07-9.56,7.16-15.47,8.79c-3.76,1.03-7.58,1.25-11.42,1.13
			c-5.39-0.17-10.44-1.74-15.32-3.95c-4.95-2.24-8.94-5.67-12.25-9.94c-2.02-2.62-3.52-5.52-4.64-8.62
			c-1.51-4.17-2.36-8.46-2.29-12.94c0.08-4.52,0.04-9.04,0.01-13.57c-0.02-3.05,0.08-6.1,0.38-9.14c0.07-0.74-0.12-1.31-0.59-1.85
			c-0.21-0.24-0.37-0.57-0.47-0.88c-0.32-0.96,0.34-2.18,1.31-2.42c0.44-0.11,0.88-0.2,1.33-0.23c5.08-0.26,10.16-0.51,15.24-0.73
			c0.55-0.02,1.12,0.09,1.66,0.23c0.71,0.19,1.32,1.09,1.24,1.84c-0.08,0.69-0.34,1.36-1.04,1.64c-0.62,0.25-1.29,0.43-1.96,0.5
			c-1.23,0.14-2.48,0.14-3.72,0.26c-0.55,0.06-1.14,0.18-1.61,0.44c-3.59,2-6.15,4.91-7.58,8.78c-0.48,1.29-0.7,2.61-0.7,3.98
			C445.9,246.96,445.9,249.22,445.89,251.81z"/>
		<path class="st24" d="M378.11,168.72c-0.04,2.11-0.04,3.92-0.06,5.73c-0.01,0.56-0.03,1.13-0.11,1.69
			c-0.14,1.02-1.16,1.82-2.17,1.74c-0.9-0.07-1.7-0.82-1.8-1.74c-0.07-0.67-0.11-1.35-0.11-2.03c-0.01-7.01-0.01-14.03,0-21.04
			c0-0.68,0.05-1.36,0.12-2.03c0.1-0.85,0.99-1.61,1.88-1.66c0.78-0.05,1.87,0.75,2.01,1.54c0.1,0.55,0.15,1.12,0.16,1.68
			c0.03,1.92,0.01,3.85,0.04,5.77c0.01,0.81,0.63,1.51,1.43,1.65c0.44,0.08,0.89,0.15,1.34,0.18c1.92,0.13,3.84,0.28,5.76,0.35
			c3.05,0.12,6.1,0.19,9.15,0.26c1.81,0.04,3.62,0,5.43,0.05c5.54,0.15,11.07,0.32,16.61,0.5c1.69,0.05,3.39,0.1,5.08,0.25
			c1.12,0.1,2.24,0.32,3.33,0.61c4.55,1.22,8.64,3.31,12.12,6.52c2.99,2.76,4.89,6.19,6.14,10c0.92,2.81,1.34,5.69,1.26,8.67
			c-0.09,3.29-0.41,6.54-1.2,9.73c-0.88,3.55-2.33,6.82-4.67,9.69c-2.11,2.6-4.63,4.59-7.7,5.95c-3.33,1.47-6.8,2.46-10.37,3.08
			c-5.02,0.87-10.09,1.3-15.18,1.42c-7.12,0.16-14.25,0.31-21.37,0.47c-0.9,0.02-1.81,0.05-2.71,0.09
			c-0.69,0.03-1.32,0.24-1.94,0.53c-1.59,0.74-2.48,1.82-2.34,3.7c0.11,1.35-0.01,2.71-0.06,4.07c-0.02,0.57-0.26,1.08-0.71,1.48
			c-0.97,0.85-2.72,0.65-3.23-1.04c-0.19-0.63-0.18-1.34-0.18-2.01c-0.02-3.73-0.01-7.47-0.01-11.2c0-3.85-0.01-7.69,0.01-11.54
			c0-0.68,0.04-1.36,0.15-2.02c0.14-0.82,1.16-1.59,1.98-1.59c0.87,0,1.81,0.76,1.94,1.61c0.09,0.55,0.13,1.12,0.14,1.68
			c0.02,1.58,0.01,3.17,0.02,4.75c0.01,0.98,0.47,1.71,1.24,2.28c1.13,0.84,2.35,1.26,3.78,1.24c4.52-0.09,9.05-0.13,13.57-0.15
			c5.99-0.04,11.99,0,17.98-0.08c3.74-0.05,7.42-0.54,11.04-1.57c4.77-1.36,8.46-4.17,11.37-8.12c1.24-1.68,1.93-3.6,2.37-5.58
			c0.54-2.42,0.88-4.89,0.86-7.4c-0.04-4.67-1.46-8.9-4.01-12.75c-2.06-3.12-4.93-5.24-8.45-6.49c-2.57-0.91-5.22-1.5-7.94-1.67
			c-4.06-0.27-8.13-0.51-12.2-0.14c-0.34,0.03-0.68,0.05-1.02,0.06c-4.29,0.1-8.59,0.19-12.89,0.29c-3.28,0.07-6.56,0.1-9.83,0.21
			c-1.35,0.05-2.7,0.21-4.04,0.41C379.18,166.93,378.45,167.45,378.11,168.72z"/>
		<path class="st24" d="M509.71,345.98c0.63-1.4,0.78-2.65,0.96-3.87c0.78-5.17,0.9-10.35-0.2-15.5c-0.14-0.67-0.35-1.29-0.68-1.9
			c-1.72-3.14-4.16-5.63-6.93-7.81c-0.69-0.54-1.57-0.88-2.41-1.2c-1.47-0.57-2.99-1.03-4.46-1.6c-0.51-0.2-0.99-0.56-1.38-0.94
			c-0.52-0.51-0.63-1.19-0.39-1.88c0.25-0.69,0.74-1.13,1.47-1.24c0.33-0.05,0.68-0.08,1-0.01c0.66,0.14,1.32,0.33,1.96,0.54
			c4.39,1.48,8.78,2.97,13.16,4.46c0.43,0.15,0.84,0.32,1.26,0.49c1.05,0.42,1.54,1.18,1.63,2.33c0.16,2.03,0.31,4.05,0.29,6.09
			c-0.04,3.62-0.07,7.24,0,10.86c0.07,3.29-0.09,6.56-0.54,9.8c-0.72,5.18-2.17,10.16-4.67,14.79c-1.47,2.71-3.31,5.13-5.56,7.23
			c-5.14,4.8-11,8.26-17.96,9.7c-3.13,0.65-6.29,0.75-9.45,0.63c-6.2-0.25-12.04-2.03-17.42-5.05
			c-7.18-4.03-12.14-10.04-14.84-17.85c-1.74-5.05-2.72-10.24-2.68-15.62c0.03-4.42,0.31-8.8,1.15-13.15
			c0.22-1.12,0.47-2.21,0.85-3.27c0.53-1.49,1.09-2.97,1.67-4.44c0.23-0.57,0.26-1.07-0.05-1.61c-0.11-0.19-0.17-0.42-0.21-0.64
			c-0.19-1.03,0.52-2.13,1.5-2.32c0.33-0.06,0.67-0.13,1.01-0.14c3.84-0.06,7.69-0.11,11.53-0.14c0.56-0.01,1.13,0.05,1.68,0.14
			c0.71,0.11,1.37,0.92,1.41,1.72c0.04,0.71-0.16,1.37-0.82,1.73c-0.48,0.27-1.03,0.52-1.56,0.57c-1.01,0.09-2.04,0.09-3.05,0.02
			c-1.32-0.09-2.46,0.35-3.51,1.05c-2.38,1.59-4.39,3.53-5.83,6.04c-1.83,3.21-2.75,6.66-3.07,10.31
			c-0.36,4.12,0.27,8.12,1.56,12.02c0.97,2.92,2.49,5.57,4.32,8.03c3.08,4.15,6.96,7.39,11.5,9.85c3.24,1.75,6.76,2.5,10.39,2.83
			c2.6,0.23,5.18,0.09,7.77-0.25c2.69-0.36,5.37-0.73,7.97-1.53c2.38-0.74,4.7-1.59,6.95-2.67c2.05-0.99,3.95-2.2,5.64-3.72
			C504.63,355.32,507.72,351.19,509.71,345.98z"/>
		<path class="st25" d="M264.76,406.63c-3.14,0.93-6.28,1.87-9.42,2.8c-3.58,1.07-7.22,1.9-10.93,2.3
			c-5.87,0.64-11.73,0.64-17.49-1.01c-6.61-1.89-10.41-6.45-12.31-12.84c-0.19-0.64-0.25-1.34-0.27-2.01
			c-0.05-1.58-0.1-3.17-0.05-4.75c0.24-6.62,4.63-12.72,10.82-15.12c3.31-1.28,6.76-1.8,10.27-1.99c6.5-0.35,12.85,0.68,19.09,2.42
			c3.59,1,7.14,2.15,10.71,3.23c0.32,0.1,0.63,0.25,0.96,0.31c0.2,0.04,0.43-0.04,0.65-0.07c-0.07-0.16-0.09-0.4-0.21-0.48
			c-0.94-0.62-1.89-1.24-2.87-1.81c-6.01-3.52-11.25-7.96-15.76-13.26c-0.95-1.12-1.84-2.3-2.69-3.49
			c-2.42-3.4-3.86-7.25-4.03-11.37c-0.24-5.63,1.25-10.78,5.79-14.58c2.32-1.94,4.97-3.05,8.07-3.07c5.47-0.04,9.85,2.16,13.3,6.32
			c1.23,1.48,2.36,3.04,3.2,4.78c1.53,3.15,3.12,6.28,4.55,9.48c2.81,6.33,6.09,12.38,10.18,17.97c1.13,1.55,2.33,3.06,3.55,4.54
			c0.9,1.1,2.07,1.7,3.59,1.68c0.35-0.74,0.61-1.49,1.03-2.14c0.78-1.22,1.89-1.92,3.4-1.85c1.34,0.06,2.42,0.65,3.07,1.81
			c0.49,0.87,0.84,1.83,1.24,2.74c0.82-0.16,1.17-0.78,1.56-1.32c3.06-4.21,7.17-7.17,11.58-9.78c1.09-0.65,2.23-1.06,3.54-0.97
			c1.75,0.12,2.99,0.94,3.67,2.56c0.22,0.51,0.41,1.07,0.46,1.62c0.23,2.48,0.34,4.98,0.02,7.45c-0.18,1.33-0.63,2.63-0.97,3.94
			c-0.11,0.44-0.26,0.86-0.37,1.3c-0.1,0.38,0.1,0.7,0.38,0.86c0.48,0.28,1.01,0.5,1.53,0.69c3.36,1.25,6.11,3.37,8.59,5.91
			c1.93,1.98,1.89,5.35-0.11,7.33c-2.35,2.33-4.88,4.37-7.99,5.61c-0.73,0.29-1.44,0.63-2.13,1c-0.15,0.08-0.26,0.39-0.24,0.58
			c0.05,0.44,0.15,0.89,0.31,1.3c1.44,3.7,1.32,7.54,1.01,11.38c-0.06,0.76-0.35,1.56-0.71,2.24c-0.67,1.28-1.78,2-3.27,2.08
			c-1.16,0.06-2.23-0.19-3.26-0.74c-4.53-2.44-8.53-5.52-11.73-9.59c-0.42-0.53-0.85-1.05-1.29-1.57c-0.21-0.25-0.67-0.14-0.79,0.19
			c-0.23,0.64-0.44,1.29-0.69,1.92c-0.91,2.27-4.48,3.28-6.47,0.87c-0.52-0.63-0.78-1.36-1.04-2.11c-0.15-0.43-0.67-0.6-1.12-0.48
			c-1.36,0.38-2.39,1.17-3.28,2.27c-4.94,6.1-9,12.74-12.26,19.86c-1.27,2.78-2.47,5.58-3.77,8.35c-1.11,2.36-2.38,4.63-3.93,6.73
			c-1.48,2.02-3.22,3.78-5.34,5.15c-3.51,2.27-7.39,2.74-11.41,2.16c-2.03-0.3-3.83-1.27-5.43-2.62c-3.26-2.76-5.03-6.27-5.72-10.46
			c-1.03-6.22,0.87-11.63,4.43-16.55c3.67-5.08,8.17-9.36,13.31-12.96c1.67-1.17,3.4-2.24,5.53-3.49c1.38-0.72,2.34-1.3,3.27-1.91
			c0.1-0.06,0.08-0.33,0.08-0.5c0-0.04-0.21-0.12-0.29-0.09C266.78,405.73,265.6,405.77,264.76,406.63z"/>
		<path class="st8" d="M264.75,406.83c0.85-1.06,2.02-1.1,3.08-1.43c0.08-0.03,0.29,0.06,0.29,0.09c0.01,0.17,0.02,0.44-0.08,0.5
			c-0.94,0.61-1.89,1.19-3.06,1.8C264.76,407.54,264.75,407.28,264.75,406.83z"/>
		<path class="st26" d="M102.36,295.61c0.46-0.36,0.82-0.62,1.07-1.01c2.16-3.31,5.53-4.82,9.07-6.04c2.04-0.71,4.18-0.8,6.33-0.75
			c2.6,0.06,4.85,0.85,6.59,2.86c0.29,0.34,0.6,0.67,1.09,1.11c0.39,1.84,0.61,3.58-0.05,5.72c-0.25,0.63-0.35,0.84-0.62,1.17
			c-0.37,0.49-0.61,0.85-0.76,1.24c-0.06,0.15,0.05,0.46,0.18,0.54c0.13,0.08,0.46,0.03,0.56-0.08c0.19-0.22,0.29-0.53,0.58-0.92
			c0.42-0.39,0.69-0.67,0.95-0.95c0.69-0.37,1.4-0.72,2.08-1.11c2.86-1.63,5.88-2.81,9.08-3.6c3.18-0.79,6.42-1.22,9.66-1.64
			c0.44-0.06,0.9,0.01,1.34,0.08c0.86,0.14,1.6,1.03,1.64,1.91c0.03,0.72-0.53,1.62-1.25,1.83c-0.86,0.25-1.74,0.49-2.63,0.57
			c-2.71,0.22-5.35,0.79-7.98,1.42c-3.32,0.8-6.42,2.09-9.23,4.05c-0.74,0.52-1.47,1.2-2.39,1.16c-0.97-0.03-1.66,0.21-2.42,0.84
			c-1.65,1.36-3.62,1.75-6.17,1.1c-1.18-0.65-1.92-1.11-2.67-1.55c-0.36-0.21-0.97,0.16-0.93,0.58c0.09,0.86,0.23,1.72,0.35,2.58
			c-0.07,0.09-0.15,0.17-0.2,0.26c-0.66,1.09-1.6,1.43-3.18,0.78c-1.01-1.4-1.2-2.61-1.13-3.88c0.15-2.75,1.42-4.27,4.17-4.96
			c0.22-0.06,0.44-0.08,0.85,0.01c0.81,0.37,1.45,0.57,2.04,0.87c0.69,0.36,1.32,0.84,2,1.21c0.27,0.14,0.64,0.1,0.94,0.15
			c0.06-0.15,0.16-0.26,0.14-0.35c-0.3-1.48,0-2.85,0.74-4.16c0.16-0.29,0.24-0.62,0.33-0.95c0.17-0.59-0.03-1.09-0.41-1.54
			c-0.14-0.17-0.29-0.35-0.46-0.48c-1.1-0.81-2.41-1.12-3.66-1.59c-0.2-0.07-0.45-0.08-0.66-0.05c-1.87,0.25-3.79,0.32-5.67,1.51
			c-1.45,0.45-2.47,1.15-3.4,1.98c-1.58,1.44-2.43,3.19-2.39,5.38c0.02,1.5,0.34,2.92,0.96,4.26c0.66,1.43,1.45,2.8,2.18,4.2
			c-0.15,0.42-0.28,0.85-0.46,1.26c-0.62,1.34-2.4,1.2-3.15,0.47c-0.08-0.08-0.17-0.15-0.23-0.24c-2.46-3.63-3.94-7.53-3.32-12.01
			c0.08-0.55,0.26-1.09,0.37-1.64C102.28,296.78,102.31,296.33,102.36,295.61z"/>
		<path class="st1" d="M130.67,285.18c-0.88,0.01-1.56-0.03-2.21-0.17c-0.71-0.15-1.17-0.64-1.36-1.35c-0.23-0.84,0-1.56,0.63-2.14
			c0.16-0.15,0.35-0.3,0.55-0.39c2.83-1.39,5.65-2.78,8.49-4.16c0.4-0.2,0.83-0.37,1.27-0.46c0.98-0.21,2.02-0.25,2.95-0.57
			c0.83-0.29,1.51-1,2.34-1.31c3.59-1.35,7.26-2.4,11.15-2.37c1.16,0.01,2.22,0.26,3.26,0.74c1.32,0.61,2.16,1.58,2.43,3.02
			c0.08,0.44,0.1,0.91,0.28,1.31c0.12,0.28,0.41,0.57,0.69,0.67c0.74,0.25,1.55,0.32,2.27,0.61c1.53,0.61,2.76,1.55,3.01,3.61
			c-0.25,0.98-0.55,1.71-0.88,2.43c-0.32,0.7-1.19,1.09-1.1,2.15c0.65,0.28,1.35,0.6,2.06,0.88c3.95,1.6,6.85,4.33,8.67,8.17
			c0.63,1.33,1.19,2.69,1.72,4.05c0.2,0.52,0.27,1.09,0.33,1.65c0.08,0.77-0.49,1.62-1.19,1.88c-0.87,0.32-2,0-2.4-0.73
			c-0.27-0.49-0.49-1.01-0.71-1.53c-0.5-1.14-0.94-2.3-1.49-3.42c-2.21-4.44-5.81-6.78-10.76-7.05c-0.45-0.02-0.91-0.01-1.35-0.08
			c-0.72-0.12-1.22-0.56-1.51-1.22c-0.42-0.95-0.68-1.95-0.26-2.95c0.55-1.31-0.08-2.18-1.04-2.9c-0.63-0.47-1.33-0.83-2.01-1.24
			c-0.24-0.81-0.4-1.59-0.71-2.3c-0.26-0.61-0.64-1.2-1.07-1.7c-0.88-1.02-2.05-1.41-3.36-1.09c-1.42,0.35-2.82,0.83-4.23,1.24
			c-0.75,0.22-1.51,0.54-2.28,0.58c-0.83,0.05-1.48,0.3-2.19,0.72c-1.06,0.63-2.21,1.12-3.35,1.62c-1.97,0.86-3.95,1.68-5.53,3.22
			C131.55,284.84,131.18,284.93,130.67,285.18z"/>
		<path class="st26" d="M142.85,321.5c-1.09-0.38-1.9-0.75-2.72-1.1c-0.84-0.36-1.57-0.87-2.22-1.52c-0.92-0.94-1.34-2.08-1.28-3.37
			c0.02-0.55,0.19-1.1,0.29-1.65c0.05-0.32-0.3-0.72-0.58-0.64c-1.3,0.36-2.62,0.68-3.88,1.13c-3.5,1.25-6.98,2.56-10.54,3.62
			c-0.86,0.26-1.71,0.58-2.59,0.77c-0.65,0.14-1.33,0.13-2.27,0.17c-0.53-0.51-0.87-0.98-1.02-1.5c-0.27-0.92,0.19-1.92,0.99-2.28
			c0.51-0.23,1.03-0.46,1.57-0.6c3.69-1,7.25-2.39,10.86-3.64c1.59-0.55,3.18-1.11,4.81-1.56c1.18-0.33,2.41-0.59,3.63-0.71
			c3.16-0.3,4.69,1.55,3.84,4.55c-0.03,0.11-0.07,0.21-0.12,0.32c-0.92,2.29-0.8,2.89,1.73,3.63c0.75,0.22,1.53,0.4,2.25,0.69
			c0.88,0.36,1.48,1,1.6,2.25c-0.16,0.5-0.36,0.78-0.57,1.03c-0.39,0.46-0.91,0.67-1.49,0.64
			C144.45,321.71,143.78,321.6,142.85,321.5z"/>
		<path class="st1" d="M196.13,327.86c0.67-0.05,1.35-0.14,2.02-0.14c0.32,0,0.66,0.13,0.97,0.26c0.81,0.35,1.22,1.61,0.76,2.31
			c-0.25,0.37-0.5,0.76-0.82,1.07c-2.77,2.69-5.79,5.04-9.47,6.81c-2.06,0.84-3.93,1.61-5.86,2.25c-1.82,0.6-3.68,1.05-5.53,1.55
			c-0.32,0.09-0.67,0.11-1,0.14c-1.13,0.11-2.02-0.46-2.34-1.51c-0.29-0.92,0.33-2.04,1.37-2.39c0.85-0.29,1.72-0.56,2.59-0.76
			c3.09-0.7,6.06-1.74,9.34-3.28c1.77-0.81,3.14-1.42,4.17-2.82c0.24-0.34,0.35-0.56,0.44-0.78c-0.01,0-0.02,0.02,0.17-0.01
			c0.3-0.25,0.41-0.46,0.51-0.67c-0.01,0.01-0.02,0.03,0.17,0c0.3-0.25,0.41-0.47,0.51-0.68c-0.01,0.01-0.03,0.02,0.19,0.05
			c0.65-0.08,0.99-0.31,1.17-0.72c-0.01,0.01-0.03,0.03,0.14-0.04c0.29-0.26,0.42-0.45,0.54-0.64
			C196.15,327.84,196.13,327.86,196.13,327.86z"/>
		<path class="st1" d="M183.06,286.86c1.98,0.58,3.69,1.09,5.37,1.7c1.91,0.69,3.69,1.59,5.11,3.11c1.4,1.5,2.02,3.18,1.31,5.45
			c-0.45,0.73-0.85,1.3-1.38,1.68c-1.22,0.88-2.63-0.19-2.82-1.32c-0.15-0.89,0.31-1.8-0.44-3.05c-1.22-0.81-2.11-1.27-3.02-1.67
			c-1.51-0.67-3.04-1.3-4.71-1.48c-0.97-0.27-1.95-0.53-2.92-0.83c-0.54-0.16-1.07-0.35-1.58-0.58c-0.82-0.37-1.37-1.45-1.18-2.22
			c0.23-0.91,1.37-1.67,2.35-1.57c0.22,0.02,0.44,0.07,0.67,0.12C180.79,286.41,181.78,286.62,183.06,286.86z"/>
		<path class="st16" d="M116.13,298.8c-0.22,0.04-0.45,0.07-0.67,0.12c-2.75,0.7-4.02,2.21-4.17,4.96
			c-0.07,1.26,0.12,2.47,0.88,3.83c-0.7,0.98-1.51,1.74-2.95,1.67c-0.96-1.4-1.74-2.78-2.4-4.2c-0.62-1.34-0.93-2.76-0.96-4.26
			c-0.03-2.19,0.82-3.94,2.39-5.38c0.92-0.84,1.95-1.53,3.49-1.75c1.54,1.1,2.7,2.08,3.71,3.22
			C115.9,297.52,116.1,298.13,116.13,298.8z"/>
		<path class="st26" d="M193.86,323.16c0.73-0.14,1.29-0.19,1.84-0.13c1.46,0.16,2.23,1.65,1.52,2.99
			c-0.25,0.49-0.64,0.91-1.02,1.59c-0.06,0.24-0.05,0.22-0.22,0.25c-0.29,0.24-0.4,0.46-0.52,0.67c0,0,0.02-0.02-0.19-0.06
			c-0.66,0.05-1.01,0.26-1.17,0.73c0,0,0.02-0.02-0.16,0.01c-0.29,0.24-0.4,0.46-0.51,0.67c0,0,0.01-0.02-0.17,0
			c-0.29,0.24-0.4,0.46-0.51,0.68c0,0,0.01-0.02-0.14-0.09c-0.28-0.07-0.39-0.06-0.75-0.03c-1.55,0.57-2.75,1.3-3.86,2.2
			c-0.34,0.02-0.68,0.09-1.01,0.06c-0.96-0.1-1.58-0.58-1.74-1.34c-0.18-0.83-0.04-1.62,0.65-2.15c1.15-0.9,2.3-1.84,3.56-2.56
			C191.04,325.75,192.4,324.59,193.86,323.16z"/>
		<path class="st21" d="M182.39,291.5c1.75-0.04,3.28,0.6,4.79,1.27c0.91,0.4,1.79,0.85,2.83,1.47c-1.18,0.13-2.19,0.92-3.33,1.56
			c-1.47-0.76-3.07-0.62-4.65-0.65c-0.43-0.01-0.95,0.07-1.15-0.48c-0.18-0.49,0.18-0.83,0.41-1.2
			C181.66,292.9,181.97,292.3,182.39,291.5z"/>
		<path class="st17" d="M116.04,306.73c-0.35-0.86-0.49-1.72-0.58-2.58c-0.04-0.42,0.56-0.79,0.93-0.58
			c0.75,0.44,1.49,0.89,2.39,1.52C118.43,306.43,117.52,306.88,116.04,306.73z"/>
		<path class="st21" d="M188.03,332.88c1.06-1.13,2.27-1.86,3.83-2.17c0.28,0.4,0.3,0.57,0.32,0.74c-0.89,1.29-2.26,1.89-3.82,2.56
			C188.11,333.73,188.09,333.42,188.03,332.88z"/>
		<path class="st1" d="M125.34,273.13c0.67-0.12,1.14-0.23,1.55-0.11c1.25,0.34,1.87,1.98,1.14,2.97c-1.01,1.38-2.3,2.43-3.94,3
			c-0.2,0.07-0.44,0.07-0.66,0.06c-0.72-0.02-1.3-0.32-1.65-0.97c-0.35-0.65-0.27-1.3,0.14-1.9c0.19-0.28,0.4-0.54,0.65-0.76
			C123.4,274.68,124.26,273.96,125.34,273.13z"/>
		<path class="st27" d="M216.05,207.04c-0.11-0.45-0.07-0.96,0.18-1.29c2.33-3.04,4.49-6.2,6.89-9.46c0.61-0.01,1.1,0.03,1.45,0.26
			c0.56,0.37,1.01,0.91,1.56,1.29c0.94,0.64,1.97,1.1,3.16,1.03c0.45-0.02,0.9-0.03,1.35,0c1.39,0.09,2.69-0.16,3.9-0.87
			c0.58-0.34,1.22-0.59,1.83-0.87c0.32-0.15,0.82-0.03,0.89,0.23c0.08,0.31,0.23,0.71,0.11,0.96c-1.06,2.25-2.01,4.56-3.31,6.67
			c-0.94,1.53-1.4,3.32-2.6,4.69c-2.2,4.59-5.18,8.7-7.93,12.96c-0.61,0.95-1.37,1.8-1.91,2.78c-0.96,1.72-2.39,2.97-3.82,4.26
			c-0.24,0.22-0.78,0.21-0.9-0.03c-0.09-0.19-0.2-0.45-0.13-0.61c0.81-1.86,1.62-3.72,1.87-5.76c0.61-1.2,1.14-2.46,1.87-3.59
			c0.52-0.81,0.78-1.61,0.74-2.53c-0.01-0.23-0.02-0.45,0-0.68c0.15-1.53-0.25-2.92-1.18-4.13c-0.77-1-1.27-2.1-1.65-3.3
			C218.11,208.05,217.38,207.33,216.05,207.04z"/>
		<path class="st26" d="M134.44,329.96c0.49,0.75,1.01,1.48,1.46,2.25c0.89,1.55,0.61,3.36-0.75,4.59
			c-0.49,0.44-1.14,0.71-1.92,1.17c-1.34,0.02-2.47-0.12-3.46-0.69c-0.48-0.27-0.97-0.62-1.29-1.05c-2.18-3-0.38-6.36,2.84-6.99
			c0.54-0.1,1.12,0.03,1.94,0.08c0.26,0.02,0.31,0,0.39,0.16C133.97,329.75,134.21,329.86,134.44,329.96z"/>
		<path class="st17" d="M134.34,329.8c-0.13,0.06-0.37-0.05-0.69-0.34C133.79,329.4,134.02,329.51,134.34,329.8z"/>
		<path class="st18" d="M116.32,298.93c-0.21-0.8-0.41-1.4-0.87-1.92c-1.01-1.14-2.17-2.12-3.46-3.28c1.55-1.36,3.47-1.43,5.34-1.68
			c0.22-0.03,0.46-0.02,0.66,0.05c1.25,0.47,2.57,0.77,3.66,1.59c0.18,0.13,0.32,0.31,0.46,0.48c0.38,0.44,0.58,0.95,0.41,1.54
			c-0.09,0.32-0.17,0.66-0.33,0.95c-0.74,1.3-1.04,2.67-0.74,4.16c0.02,0.09-0.08,0.2-0.14,0.35c-0.31-0.04-0.67,0-0.94-0.15
			c-0.69-0.36-1.31-0.85-2-1.21C117.77,299.5,117.12,299.3,116.32,298.93z"/>
		<path class="st5" d="M126.25,299.56c-0.13,0.27-0.23,0.58-0.42,0.81c-0.1,0.11-0.43,0.16-0.56,0.08
			c-0.13-0.08-0.23-0.39-0.18-0.54c0.15-0.39,0.39-0.75,0.84-0.99C126.2,299.22,126.22,299.39,126.25,299.56z"/>
		<path class="st6" d="M126.41,299.45c-0.19-0.06-0.21-0.23-0.31-0.65c0.02-0.46,0.12-0.67,0.33-1.02c0.26,0,0.4,0.13,0.73,0.49
			C127.09,298.78,126.83,299.06,126.41,299.45z"/>
		<path class="st8" d="M194.31,329.24c-0.06-0.49,0.3-0.7,0.97-0.76C195.3,328.93,194.96,329.16,194.31,329.24z"/>
		<path class="st8" d="M192.33,331.33c-0.16-0.05-0.19-0.22-0.22-0.64c0.1-0.26,0.22-0.27,0.51-0.21
			C192.67,330.77,192.57,330.99,192.33,331.33z"/>
		<path class="st8" d="M192.93,330.54c-0.08-0.19,0.03-0.41,0.33-0.65C193.34,330.08,193.23,330.3,192.93,330.54z"/>
		<path class="st8" d="M193.61,329.87c-0.08-0.19,0.03-0.4,0.33-0.65C194.02,329.4,193.91,329.62,193.61,329.87z"/>
		<path class="st8" d="M195.62,328.48c-0.05-0.15,0.06-0.36,0.36-0.61C196.04,328.02,195.91,328.22,195.62,328.48z"/>
	</g>
</g>
</svg>
